{
.appVersion = "3151";
.formatVersion = 3;
DisplayStrings = (
"ABCDEFGH
IJKLMNOPQ
RSTUVWXYZ
abcdefghijklm
nopqrstuvwxyz
zimbabwe
0123456789
.,;!.?-()@$€
"
);
date = "2023-11-07 14:50:43 +0000";
familyName = Chuma;
fontMaster = (
{
guides = (
{
angle = 90;
pos = (1461,-149);
},
{
locked = 1;
pos = (7,884);
},
{
locked = 1;
pos = (652,578);
},
{
locked = 1;
pos = (6,90);
},
{
locked = 1;
pos = (3,-354);
},
{
locked = 1;
pos = (-2,-44);
},
{
locked = 1;
pos = (647,263);
},
{
locked = 1;
pos = (1,481);
},
{
locked = 1;
pos = (0,435);
},
{
locked = 1;
pos = (3,743);
},
{
locked = 1;
pos = (-3,631);
}
);
id = m01;
metricValues = (
{
over = 20;
pos = 900;
},
{
over = 20;
pos = 800;
},
{
over = 35;
pos = 610;
},
{
over = -20;
},
{
over = -20;
pos = -500;
},
{
}
);
name = Regular;
userData = {
GSCornerRadius = 60;
};
}
);
glyphs = (
{
glyphname = A;
lastChange = "2024-09-24 09:37:32 +0000";
layers = (
{
layerId = m01;
shapes = (
{
closed = 1;
nodes = (
(742,140,o),
(740,269,o),
(717,382,cs),
(670,607,o),
(581,816,o),
(380,816,cs),
(379,816,ls),
(178,816,o),
(89,607,o),
(42,382,cs),
(19,269,o),
(17,140,o),
(10,22,cs),
(9,9,o),
(19,0,o),
(31,0,cs),
(329,1,ls),
(346,1,o),
(358,15,o),
(355,32,cs),
(349,74,o),
(341,126,o),
(337,160,cs),
(333,197,o),
(329,235,o),
(327,273,cs),
(319,406,o),
(320,534,o),
(339,666,cs),
(344,709,o),
(365,728,o),
(384,727,cs),
(407,725,o),
(429,706,o),
(421,647,cs),
(404,524,o),
(387,402,o),
(384,278,cs),
(384,239,o),
(384,199,o),
(386,160,cs),
(386,149,o),
(391,86,o),
(397,24,cs),
(398,10,o),
(408,1,o),
(421,1,cs),
(728,0,ls),
(740,0,o),
(750,9,o),
(749,22,cs)
);
},
{
closed = 1;
nodes = (
(278,435,l),
(427,435,l),
(427,481,l),
(278,481,l)
);
}
);
width = 769;
}
);
metricLeft = O;
unicode = 65;
},
{
glyphname = B;
lastChange = "2024-09-22 17:26:52 +0000";
layers = (
{
layerId = m01;
shapes = (
{
closed = 1;
nodes = (
(438,134,o),
(435,112,o),
(422,101,cs),
(408,88,o),
(384,88,o),
(363,101,cs),
(329,124,o),
(313,172,o),
(299,209,cs),
(279,257,o),
(264,307,o),
(250,356,cs),
(233,429,o),
(222,503,o),
(221,580,cs),
(221,601,o),
(228,609,o),
(236,610,cs),
(243,611,o),
(251,602,o),
(251,589,cs),
(251,503,o),
(285,421,o),
(319,343,cs),
(344,279,o),
(380,221,o),
(418,164,cs)
);
},
{
closed = 1;
nodes = (
(188,703,o),
(201,713,cs),
(208,718,o),
(220,721,o),
(235,718,cs),
(259,713,o),
(279,699,o),
(296,685,cs),
(318,667,o),
(338,648,o),
(356,628,cs),
(382,598,o),
(405,566,o),
(423,529,cs),
(427,522,o),
(426,516,o),
(423,513,cs),
(419,508,o),
(412,508,o),
(407,516,cs),
(380,553,o),
(350,587,o),
(314,615,cs),
(285,638,o),
(252,656,o),
(217,672,cs),
(190,684,o)
);
},
{
closed = 1;
nodes = (
(645,437,o),
(555,467,o),
(522,474,c),
(531,482,o),
(567,495,o),
(592,535,cs),
(607,559,o),
(618,591,o),
(618,636,cs),
(618,681,o),
(603,713,o),
(581,737,cs),
(514,811,o),
(402,804,o),
(402,804,cs),
(48,804,ls),
(32,804,o),
(23,795,o),
(25,778,cs),
(35,668,o),
(35,514,o),
(35,401,cs),
(35,287,o),
(35,136,o),
(25,26,cs),
(23,9,o),
(32,0,o),
(48,0,cs),
(554,0,ls),
(586,0,o),
(651,24,o),
(694,109,cs),
(710,141,o),
(721,181,o),
(721,231,cs),
(721,289,o),
(708,332,o),
(688,364,cs)
);
}
);
width = 721;
}
);
unicode = 66;
},
{
glyphname = C;
lastChange = "2024-09-20 18:54:45 +0000";
layers = (
{
layerId = m01;
shapes = (
{
closed = 1;
nodes = (
(455,396,ls),
(433,396,o),
(416,381,o),
(414,358,cs),
(409,277,o),
(411,192,o),
(421,102,cs),
(422,92,o),
(414,81,o),
(404,81,cs),
(397,81,o),
(389,87,o),
(388,97,cs),
(368,207,o),
(358,275,o),
(356,390,cs),
(357,459,o),
(358,527,o),
(367,595,cs),
(370,621,o),
(375,678,o),
(392,716,cs),
(402,740,o),
(418,756,o),
(445,749,cs),
(472,742,o),
(477,715,o),
(472,684,c),
(454,617,o),
(439,553,o),
(428,490,cs),
(424,463,o),
(445,440,o),
(472,440,cs),
(725,440,ls),
(751,440,o),
(772,461,o),
(767,488,cs),
(762,521,o),
(755,554,o),
(745,585,cs),
(691,752,o),
(519,836,o),
(351,816,cs),
(133,791,o),
(22,625,o),
(20,414,cs),
(19,242,o),
(67,87,o),
(235,11,cs),
(368,-49,o),
(524,-27,o),
(638,62,cs),
(720,125,o),
(764,234,o),
(773,352,cs),
(775,377,o),
(755,396,o),
(731,396,cs)
);
}
);
width = 793;
}
);
unicode = 67;
},
{
glyphname = D;
lastChange = "2024-09-22 20:45:21 +0000";
layers = (
{
layerId = m01;
shapes = (
{
closed = 1;
nodes = (
(419,94,o),
(407,82,o),
(396,83,cs),
(388,84,o),
(381,92,o),
(381,108,cs),
(381,210,o),
(355,311,o),
(321,407,cs),
(296,485,o),
(258,558,o),
(215,628,cs),
(190,674,o),
(202,699,o),
(225,708,cs),
(245,715,o),
(273,711,o),
(289,699,cs),
(328,670,o),
(343,610,o),
(357,565,cs),
(376,506,o),
(391,446,o),
(403,385,cs),
(417,297,o),
(424,208,o),
(420,116,cs)
);
},
{
closed = 1;
nodes = (
(49,800,ls),
(33,800,o),
(24,791,o),
(25,774,cs),
(35,663,o),
(35,512,o),
(35,399,cs),
(35,287,o),
(35,135,o),
(26,26,cs),
(24,9,o),
(33,0,o),
(49,0,cs),
(386,0,ls),
(554,0,o),
(711,178,o),
(711,401,cs),
(711,622,o),
(532,800,o),
(364,800,cs)
);
}
);
width = 736;
}
);
unicode = 68;
},
{
glyphname = E;
lastChange = "2024-09-23 18:49:38 +0000";
layers = (
{
layerId = m01;
shapes = (
{
closed = 1;
nodes = (
(312,551,o),
(469,537,o),
(604,551,cs),
(616,552,o),
(623,561,o),
(623,572,cs),
(623,784,ls),
(623,797,o),
(614,808,o),
(600,807,cs),
(489,806,o),
(278,809,o),
(218,807,cs),
(103,804,o),
(25,773,o),
(25,645,cs),
(25,549,o),
(82,520,o),
(133,511,c),
(110,504,o),
(68,500,o),
(42,443,cs),
(35,428,o),
(32,413,o),
(32,398,cs),
(32,382,o),
(35,366,o),
(42,351,cs),
(68,294,o),
(110,290,o),
(133,283,c),
(82,274,o),
(25,245,o),
(25,149,cs),
(25,41,o),
(103,3,o),
(218,0,cs),
(278,-2,o),
(489,1,o),
(600,0,cs),
(614,-1,o),
(623,10,o),
(623,23,cs),
(623,222,ls),
(623,233,o),
(616,242,o),
(604,243,cs),
(469,257,o),
(312,243,o),
(182,206,cs),
(160,199,o),
(145,208,o),
(138,219,c),
(132,233,o),
(138,252,o),
(160,263,cs),
(186,276,o),
(224,281,o),
(242,283,cs),
(350,296,o),
(488,290,o),
(595,272,cs),
(611,269,o),
(623,280,o),
(623,295,cs),
(623,499,ls),
(623,514,o),
(611,525,o),
(595,522,cs),
(488,504,o),
(350,498,o),
(242,511,cs),
(224,513,o),
(186,518,o),
(160,531,cs),
(138,542,o),
(132,561,o),
(138,575,c),
(145,586,o),
(160,595,o),
(182,588,cs)
);
}
);
width = 648;
}
);
unicode = 69;
},
{
glyphname = Eacute;
lastChange = "2024-09-22 20:48:34 +0000";
layers = (
{
layerId = m01;
shapes = (
{
closed = 1;
nodes = (
(512,940,o),
(501,919,o),
(478,913,cs),
(305,865,ls),
(270,856,o),
(232,874,o),
(239,904,cs),
(255,969,o),
(350,1045,o),
(421,1059,cs),
(441,1064,o),
(459,1053,o),
(467,1036,cs),
(503,960,ls)
);
},
{
closed = 1;
nodes = (
(312,551,o),
(469,537,o),
(604,551,cs),
(616,552,o),
(623,561,o),
(623,572,cs),
(623,790,ls),
(623,803,o),
(614,814,o),
(600,813,cs),
(489,812,o),
(278,815,o),
(218,813,cs),
(103,810,o),
(25,743,o),
(25,645,cs),
(25,549,o),
(82,520,o),
(133,511,c),
(110,504,o),
(68,500,o),
(42,443,cs),
(35,428,o),
(32,413,o),
(32,398,cs),
(32,382,o),
(35,366,o),
(42,351,cs),
(68,294,o),
(110,290,o),
(133,283,c),
(82,274,o),
(25,245,o),
(25,149,cs),
(25,51,o),
(103,3,o),
(218,0,cs),
(278,-2,o),
(489,1,o),
(600,0,cs),
(614,-1,o),
(623,10,o),
(623,23,cs),
(623,222,ls),
(623,233,o),
(616,242,o),
(604,243,cs),
(469,257,o),
(312,243,o),
(182,206,cs),
(160,199,o),
(145,208,o),
(138,219,c),
(132,233,o),
(138,252,o),
(160,263,cs),
(186,276,o),
(224,281,o),
(242,283,cs),
(350,296,o),
(488,290,o),
(595,272,cs),
(611,269,o),
(623,280,o),
(623,295,cs),
(623,499,ls),
(623,514,o),
(611,525,o),
(595,522,cs),
(488,504,o),
(350,498,o),
(242,511,cs),
(224,513,o),
(186,518,o),
(160,531,cs),
(138,542,o),
(132,561,o),
(138,575,c),
(145,586,o),
(160,595,o),
(182,588,cs)
);
}
);
width = 648;
}
);
unicode = 201;
},
{
glyphname = F;
lastChange = "2024-09-17 22:44:48 +0000";
layers = (
{
layerId = m01;
shapes = (
{
closed = 1;
nodes = (
(373,522,o),
(312,528,o),
(252,543,cs),
(228,548,o),
(177,557,o),
(145,577,cs),
(124,589,o),
(110,607,o),
(119,632,cs),
(128,659,o),
(153,662,o),
(180,654,c),
(270,619,o),
(354,593,o),
(438,578,cs),
(471,572,o),
(504,567,o),
(539,564,cs),
(555,563,o),
(567,573,o),
(567,590,cs),
(566,775,ls),
(566,791,o),
(557,800,o),
(541,800,cs),
(449,799,o),
(141,800,o),
(49,800,cs),
(32,800,o),
(24,791,o),
(25,774,cs),
(30,701,o),
(33,579,o),
(33,560,cs),
(33,462,o),
(98,410,o),
(210,390,c),
(79,365,o),
(43,298,o),
(33,164,c),
(32,115,o),
(29,67,o),
(25,26,cs),
(24,9,o),
(33,0,o),
(49,0,cs),
(347,0,ls),
(363,0,o),
(372,9,o),
(371,26,cs),
(367,97,o),
(365,185,o),
(364,270,cs),
(364,285,o),
(372,294,o),
(387,296,cs),
(433,302,o),
(485,307,o),
(529,310,cs),
(545,311,ls),
(560,312,o),
(569,322,o),
(569,337,cs),
(568,488,ls),
(568,504,o),
(557,514,o),
(542,514,cs),
(510,513,o),
(476,514,o),
(436,516,cs)
);
}
);
width = 594;
}
);
unicode = 70;
},
{
glyphname = G;
lastChange = "2024-09-24 14:52:49 +0000";
layers = (
{
annotations = (
{
pos = (437.698,436.056);
type = Text;
}
);
layerId = m01;
shapes = (
{
closed = 1;
nodes = (
(411,287,o),
(406,237,o),
(408,191,cs),
(409,168,o),
(412,144,o),
(416,121,cs),
(419,107,o),
(422,86,o),
(398,92,cs),
(383,96,o),
(380,113,o),
(374,127,cs),
(360,163,o),
(348,201,o),
(344,241,cs),
(341,268,o),
(337,323,o),
(357,353,cs),
(365,364,o),
(377,372,o),
(393,372,cs),
(407,372,o),
(419,363,o),
(421,348,cs),
(422,342,o),
(420,337,o),
(419,331,cs)
);
},
{
closed = 1;
nodes = (
(8,380,o),
(28,198,o),
(130,88,cs),
(220,-5,o),
(351,-32,o),
(472,-17,cs),
(577,-5,o),
(669,68,o),
(712,167,cs),
(733,214,o),
(743,265,o),
(743,316,cs),
(743,342,o),
(740,389,o),
(716,406,cs),
(695,423,o),
(663,415,o),
(640,408,cs),
(596,394,o),
(555,379,o),
(508,383,cs),
(467,387,o),
(424,403,o),
(397,437,cs),
(372,469,o),
(360,510,o),
(357,550,cs),
(353,595,o),
(359,639,o),
(369,670,cs),
(379,700,o),
(396,725,o),
(427,723,cs),
(462,721,o),
(452,683,o),
(443,662,cs),
(418,603,o),
(402,533,o),
(422,475,cs),
(433,444,o),
(472,439,o),
(499,436,cs),
(562,428,o),
(627,431,o),
(686,456,cs),
(715,466,o),
(729,494,o),
(732,527,cs),
(737,568,o),
(727,617,o),
(711,652,cs),
(687,708,o),
(643,749,o),
(590,778,cs),
(536,808,o),
(474,820,o),
(411,819,cs),
(350,818,o),
(289,803,o),
(235,777,cs),
(132,729,o),
(60,636,o),
(38,525,cs)
);
}
);
width = 768;
}
);
unicode = 71;
},
{
glyphname = H;
lastChange = "2024-09-17 22:10:15 +0000";
layers = (
{
layerId = m01;
shapes = (
{
closed = 1;
nodes = (
(682,518,o),
(681,650,o),
(692,769,cs),
(694,785,o),
(682,798,o),
(666,798,cs),
(429,798,ls),
(413,798,o),
(401,786,o),
(402,770,cs),
(408,692,o),
(409,616,o),
(404,537,cs),
(403,524,o),
(401,509,o),
(394,498,cs),
(380,477,o),
(352,479,o),
(339,500,cs),
(331,514,o),
(330,532,o),
(331,550,cs),
(338,624,o),
(343,698,o),
(343,773,cs),
(343,787,o),
(332,798,o),
(318,798,cs),
(51,798,ls),
(35,798,o),
(23,785,o),
(25,769,cs),
(36,650,o),
(35,518,o),
(35,399,cs),
(35,280,o),
(36,148,o),
(25,29,cs),
(23,13,o),
(35,0,o),
(51,0,cs),
(302,0,ls),
(318,0,o),
(330,13,o),
(328,29,cs),
(316,146,o),
(311,269,o),
(321,386,cs),
(322,401,o),
(325,417,o),
(333,429,cs),
(349,452,o),
(380,449,o),
(393,426,cs),
(402,410,o),
(402,390,o),
(400,372,cs),
(387,256,o),
(380,140,o),
(383,24,cs),
(384,10,o),
(394,0,o),
(408,0,cs),
(666,0,ls),
(682,0,o),
(694,13,o),
(692,29,cs),
(681,148,o),
(682,280,o),
(682,399,cs)
);
}
);
width = 717;
}
);
unicode = 72;
},
{
glyphname = I;
lastChange = "2024-04-11 01:00:24 +0000";
layers = (
{
layerId = m01;
shapes = (
{
closed = 1;
nodes = (
(57,0,ls),
(40,0,o),
(31,9,o),
(33,26,cs),
(44,128,o),
(44,270,o),
(44,374,c),
(44,478,o),
(44,662,o),
(33,774,cs),
(31,791,o),
(40,800,o),
(57,800,cs),
(334,800,ls),
(351,800,o),
(360,791,o),
(358,774,cs),
(347,663,o),
(346,493,o),
(346,386,c),
(346,279,o),
(346,132,o),
(357,26,cs),
(359,9,o),
(350,0,o),
(333,0,cs)
);
}
);
width = 391;
}
);
unicode = 73;
},
{
glyphname = J;
lastChange = "2024-09-23 20:31:25 +0000";
layers = (
{
layerId = m01;
shapes = (
{
closed = 1;
nodes = (
(215,798,ls),
(183,798,o),
(190,770,o),
(192,748,cs),
(197,689,o),
(196,627,o),
(197,568,cs),
(197,513,o),
(204,456,o),
(237,409,cs),
(277,352,o),
(321,297,o),
(349,233,cs),
(356,219,o),
(367,188,o),
(373,156,cs),
(381,111,o),
(379,65,o),
(336,64,cs),
(302,63,o),
(284,103,o),
(276,131,cs),
(264,174,o),
(267,219,o),
(271,263,cs),
(274,288,o),
(270,307,o),
(249,318,cs),
(172,357,o),
(25,354,o),
(25,183,cs),
(25,64,o),
(115,0,o),
(218,-16,cs),
(278,-25,o),
(343,-17,o),
(396,7,cs),
(528,66,o),
(518,243,o),
(518,364,cs),
(518,718,ls),
(518,720,o),
(518,739,o),
(520,768,cs),
(521,784,o),
(510,797,o),
(494,797,cs)
);
}
);
width = 545;
}
);
unicode = 74;
},
{
glyphname = K;
lastChange = "2024-09-23 20:31:08 +0000";
layers = (
{
layerId = m01;
shapes = (
{
closed = 1;
nodes = (
(657,383,o),
(600,368,o),
(569,368,cs),
(499,368,o),
(468,392,o),
(437,413,cs),
(432,416,o),
(435,423,o),
(440,422,cs),
(507,410,o),
(591,396,o),
(655,474,cs),
(684,510,o),
(711,565,o),
(711,650,cs),
(711,690,o),
(707,744,o),
(699,780,cs),
(696,795,o),
(686,801,o),
(672,801,cs),
(560,801,o),
(467,800,o),
(415,801,cs),
(399,801,o),
(390,793,o),
(389,777,cs),
(385,691,o),
(388,626,o),
(396,535,cs),
(401,499,o),
(384,480,o),
(366,479,cs),
(350,479,o),
(332,493,o),
(329,523,cs),
(323,612,o),
(329,690,o),
(343,774,cs),
(345,791,o),
(337,801,o),
(321,801,cs),
(48,801,ls),
(32,801,o),
(23,792,o),
(25,775,cs),
(36,663,o),
(36,479,o),
(36,375,cs),
(36,271,o),
(36,129,o),
(25,27,cs),
(23,10,o),
(32,1,o),
(48,1,cs),
(328,1,ls),
(344,1,o),
(352,11,o),
(350,28,cs),
(344,65,o),
(337,117,o),
(332,172,cs),
(324,258,o),
(320,350,o),
(329,393,cs),
(338,430,o),
(352,443,o),
(364,443,cs),
(380,444,o),
(394,425,o),
(394,412,cs),
(394,339,o),
(377,252,o),
(383,172,cs),
(387,120,o),
(400,71,o),
(434,31,cs),
(458,3,o),
(496,1,o),
(530,0,cs),
(581,-2,o),
(649,1,o),
(695,0,cs),
(712,0,o),
(720,13,o),
(717,30,cs),
(700,154,o),
(714,303,o),
(721,404,cs),
(722,423,o),
(714,426,o),
(699,414,cs)
);
}
);
width = 746;
}
);
unicode = 75;
},
{
glyphname = L;
lastChange = "2024-09-22 10:50:34 +0000";
layers = (
{
layerId = m01;
shapes = (
{
closed = 1;
nodes = (
(577,291,ls),
(577,308,o),
(567,317,o),
(551,314,cs),
(452,299,o),
(219,255,o),
(165,237,cs),
(149,232,o),
(126,230,o),
(113,243,cs),
(98,261,o),
(143,274,o),
(164,282,cs),
(180,288,o),
(195,296,o),
(209,304,cs),
(237,321,o),
(263,342,o),
(284,367,cs),
(327,416,o),
(353,480,o),
(357,545,c),
(357,642,ls),
(359,690,o),
(362,734,o),
(366,774,cs),
(368,790,o),
(359,800,o),
(342,800,cs),
(44,800,ls),
(27,800,o),
(18,791,o),
(20,774,cs),
(27,710,o),
(29,633,o),
(32,557,cs),
(35,469,o),
(56,421,o),
(163,402,c),
(47,380,o),
(34,325,o),
(32,221,cs),
(31,154,o),
(27,83,o),
(20,26,cs),
(18,10,o),
(27,0,o),
(44,0,cs),
(554,0,ls),
(570,0,o),
(579,8,o),
(579,25,cs)
);
}
);
width = 599;
}
);
unicode = 76;
},
{
glyphname = M;
lastChange = "2024-09-17 20:21:16 +0000";
layers = (
{
layerId = m01;
shapes = (
{
closed = 1;
nodes = (
(979,162,o),
(973,691,o),
(976,792,cs),
(977,800,o),
(967,804,o),
(951,804,cs),
(771,803,l),
(616,793,o),
(537,634,o),
(510,485,c),
(483,634,o),
(404,793,o),
(249,803,c),
(69,804,ls),
(53,804,o),
(44,795,o),
(44,779,cs),
(47,652,o),
(41,158,o),
(32,26,cs),
(31,9,o),
(40,0,o),
(56,0,cs),
(306,1,ls),
(322,1,o),
(332,11,o),
(331,27,cs),
(324,145,ls),
(310,307,o),
(272,467,o),
(225,623,cs),
(219,642,o),
(215,663,o),
(222,681,cs),
(231,707,o),
(262,716,o),
(282,696,cs),
(294,685,o),
(299,669,o),
(303,654,cs),
(339,524,o),
(358,398,o),
(368,265,cs),
(372,200,o),
(374,135,o),
(373,70,cs),
(372,26,ls),
(372,9,o),
(380,1,o),
(396,1,cs),
(624,1,ls),
(640,1,o),
(650,10,o),
(649,27,cs),
(647,70,ls),
(646,135,o),
(648,200,o),
(653,265,cs),
(662,398,o),
(681,524,o),
(717,654,cs),
(721,669,o),
(727,685,o),
(738,696,cs),
(758,716,o),
(789,707,o),
(798,681,cs),
(805,663,o),
(801,642,o),
(796,623,cs),
(748,467,o),
(710,307,o),
(696,145,cs),
(689,27,ls),
(688,11,o),
(698,1,o),
(714,1,cs),
(964,-1,ls),
(980,-1,o),
(989,8,o),
(988,25,cs)
);
}
);
width = 1020;
}
);
unicode = 77;
},
{
glyphname = N;
lastChange = "2024-09-22 20:05:59 +0000";
layers = (
{
layerId = m01;
shapes = (
{
closed = 1;
nodes = (
(406,801,ls),
(375,801,o),
(362,769,o),
(382,743,cs),
(478,618,o),
(551,516,o),
(612,398,cs),
(631,361,o),
(626,335,o),
(613,324,cs),
(594,310,o),
(559,320,o),
(538,365,cs),
(486,472,o),
(433,610,o),
(338,709,cs),
(290,758,o),
(236,800,o),
(170,800,cs),
(39,799,l),
(29,796,o),
(24,788,o),
(25,774,cs),
(36,662,o),
(36,478,o),
(36,374,cs),
(36,270,o),
(36,128,o),
(25,26,cs),
(23,9,o),
(32,0,o),
(48,0,cs),
(312,1,ls),
(342,1,o),
(355,30,o),
(338,54,cs),
(317,83,o),
(298,113,o),
(280,143,cs),
(210,254,o),
(151,366,o),
(103,490,cs),
(86,535,o),
(97,560,o),
(114,566,cs),
(135,574,o),
(167,555,o),
(181,514,cs),
(212,413,o),
(269,241,o),
(364,125,cs),
(418,57,o),
(483,2,o),
(567,2,cs),
(699,2,ls),
(714,2,o),
(722,11,o),
(720,28,cs),
(709,134,o),
(709,281,o),
(709,388,cs),
(709,495,o),
(710,665,o),
(721,776,cs),
(723,792,o),
(714,802,o),
(699,802,cs)
);
}
);
width = 746;
}
);
unicode = 78;
},
{
glyphname = O;
lastChange = "2024-09-20 21:00:12 +0000";
layers = (
{
layerId = m01;
shapes = (
{
closed = 1;
nodes = (
(428,583,o),
(407,489,o),
(398,397,cs),
(389,305,o),
(391,212,o),
(403,109,cs),
(404,99,o),
(395,88,o),
(384,88,cs),
(376,88,o),
(368,94,o),
(367,104,cs),
(345,213,o),
(333,280,o),
(331,393,cs),
(332,462,o),
(333,529,o),
(343,596,cs),
(347,622,o),
(352,678,o),
(371,715,cs),
(382,739,o),
(400,755,o),
(428,748,cs),
(458,741,o),
(464,714,o),
(458,684,cs)
);
},
{
closed = 1;
nodes = (
(8,248,o),
(68,99,o),
(197,37,cs),
(261,4,o),
(338,-13,o),
(400,-13,cs),
(478,-13,o),
(567,13,o),
(641,69,cs),
(780,173,o),
(815,397,o),
(751,586,cs),
(694,744,o),
(549,832,o),
(369,818,cs),
(141,800,o),
(12,657,o),
(10,417,cs)
);
}
);
width = 792;
}
);
unicode = 79;
},
{
glyphname = P;
lastChange = "2024-09-22 22:28:59 +0000";
layers = (
{
layerId = m01;
shapes = (
{
closed = 1;
nodes = (
(390,697,o),
(376,664,o),
(371,647,cs),
(354,571,o),
(343,496,o),
(351,417,cs),
(352,409,o),
(359,362,o),
(338,368,cs),
(323,373,o),
(319,430,o),
(317,444,cs),
(309,492,o),
(308,595,o),
(314,647,cs),
(317,675,o),
(322,701,o),
(331,718,cs),
(340,737,o),
(353,747,o),
(372,741,cs),
(385,738,o),
(391,726,o),
(390,714,cs)
);
},
{
closed = 1;
nodes = (
(23,13,o),
(35,1,o),
(51,1,cs),
(303,1,ls),
(319,1,o),
(331,14,o),
(329,31,cs),
(320,120,o),
(321,230,o),
(320,319,c),
(436,317,o),
(577,322,o),
(634,440,cs),
(674,526,o),
(673,687,o),
(586,750,cs),
(483,826,o),
(202,796,o),
(53,800,cs),
(36,800,o),
(23,788,o),
(25,771,cs),
(35,651,o),
(34,520,o),
(34,401,cs),
(34,281,o),
(35,149,o),
(25,30,cs)
);
}
);
width = 684;
}
);
unicode = 80;
},
{
glyphname = Q;
lastChange = "2024-09-22 20:46:15 +0000";
layers = (
{
layerId = m01;
shapes = (
{
closed = 1;
nodes = (
(372,93,o),
(364,82,o),
(354,82,cs),
(346,83,o),
(335,92,o),
(329,111,cs),
(307,200,o),
(297,288,o),
(294,377,cs),
(294,438,o),
(297,500,o),
(305,561,cs),
(310,608,o),
(314,668,o),
(346,705,cs),
(363,723,o),
(387,728,o),
(410,721,cs),
(444,713,o),
(442,683,o),
(431,650,cs),
(420,620,o),
(410,591,o),
(401,561,cs),
(387,513,o),
(376,464,o),
(370,414,cs),
(355,314,o),
(359,213,o),
(368,111,c)
);
},
{
closed = 1;
nodes = (
(0,176,o),
(127,-5,o),
(331,-19,c),
(332,-19,l),
(393,-91,o),
(447,-197,o),
(547,-214,cs),
(611,-227,o),
(680,-212,o),
(716,-157,cs),
(746,-111,o),
(748,-35,o),
(711,9,cs),
(695,28,o),
(670,17,o),
(653,0,cs),
(624,-29,o),
(580,-47,o),
(539,-52,cs),
(494,-55,o),
(434,-49,o),
(382,-29,cs),
(377,-27,o),
(378,-19,o),
(384,-19,cs),
(586,-5,o),
(713,176,o),
(713,399,cs),
(713,633,o),
(575,820,o),
(357,820,cs),
(138,820,o),
(0,633,o),
(0,399,cs)
);
}
);
width = 733;
}
);
unicode = 81;
},
{
glyphname = R;
lastChange = "2024-09-24 11:28:55 +0000";
layers = (
{
layerId = m01;
shapes = (
{
closed = 1;
nodes = (
(439,508,o),
(433,508,o),
(427,516,cs),
(401,553,o),
(370,587,o),
(334,615,cs),
(305,638,o),
(272,656,o),
(237,672,cs),
(210,684,o),
(208,703,o),
(221,713,cs),
(228,718,o),
(240,721,o),
(255,718,cs),
(279,713,o),
(299,699,o),
(316,685,cs),
(338,667,o),
(358,648,o),
(376,628,cs),
(402,598,o),
(425,566,o),
(443,529,cs),
(447,522,o),
(446,516,o),
(443,513,cs)
);
},
{
closed = 1;
nodes = (
(23,9,o),
(32,0,o),
(48,0,cs),
(327,0,ls),
(354,0,o),
(365,23,o),
(354,48,cs),
(343,73,o),
(335,100,o),
(327,124,cs),
(306,183,o),
(289,245,o),
(274,306,cs),
(256,397,o),
(243,488,o),
(240,583,cs),
(239,596,o),
(237,613,o),
(249,621,cs),
(265,631,o),
(269,607,o),
(270,597,cs),
(290,426,o),
(355,239,o),
(436,88,cs),
(464,36,o),
(507,-1,o),
(568,-1,cs),
(681,-1,ls),
(698,-1,o),
(706,12,o),
(703,30,cs),
(686,158,o),
(700,323,o),
(707,427,cs),
(708,447,o),
(700,450,o),
(685,437,cs),
(643,405,o),
(586,390,o),
(555,390,cs),
(512,390,o),
(484,399,o),
(461,412,cs),
(459,413,o),
(460,417,o),
(463,417,cs),
(564,417,o),
(646,499,o),
(646,601,cs),
(646,707,o),
(563,796,o),
(459,803,c),
(48,804,ls),
(32,804,o),
(23,795,o),
(25,778,cs),
(35,668,o),
(35,514,o),
(35,401,cs),
(35,287,o),
(35,136,o),
(25,26,cs)
);
}
);
width = 732;
}
);
unicode = 82;
},
{
glyphname = S;
lastChange = "2024-09-24 15:27:37 +0000";
layers = (
{
layerId = m01;
shapes = (
{
closed = 1;
nodes = (
(692,359,o),
(677,392,o),
(658,419,cs),
(567,549,o),
(394,590,o),
(255,639,c),
(229,650,o),
(218,667,o),
(224,680,cs),
(228,689,o),
(239,696,o),
(261,696,cs),
(323,697,o),
(385,677,o),
(441,646,c),
(491,614,o),
(536,575,o),
(575,529,cs),
(586,514,o),
(603,490,o),
(626,494,cs),
(692,506,o),
(727,655,o),
(639,737,cs),
(583,789,o),
(512,811,o),
(436,817,cs),
(395,821,o),
(356,819,o),
(318,816,cs),
(164,806,o),
(41,744,o),
(26,577,cs),
(22,518,o),
(33,456,o),
(64,404,cs),
(74,386,o),
(87,369,o),
(102,355,cs),
(176,279,o),
(272,233,o),
(374,207,cs),
(393,202,o),
(412,197,o),
(433,188,cs),
(445,182,o),
(471,171,o),
(475,154,cs),
(478,135,o),
(460,124,o),
(445,122,cs),
(397,119,o),
(349,132,o),
(305,154,cs),
(261,177,o),
(220,208,o),
(185,243,cs),
(168,259,o),
(152,279,o),
(137,297,cs),
(122,313,o),
(103,329,o),
(81,319,cs),
(47,303,o),
(31,265,o),
(27,224,cs),
(22,173,o),
(36,121,o),
(73,86,cs),
(152,5,o),
(309,-31,o),
(434,-17,cs),
(512,-8,o),
(601,32,o),
(651,97,cs),
(699,158,o),
(710,247,o),
(698,323,cs)
);
}
);
width = 727;
}
);
unicode = 83;
},
{
glyphname = T;
lastChange = "2024-09-24 09:31:43 +0000";
layers = (
{
layerId = m01;
shapes = (
{
closed = 1;
nodes = (
(499,442,o),
(482,441,o),
(446,437,cs),
(402,434,o),
(358,432,o),
(314,433,cs),
(276,434,o),
(233,434,o),
(198,449,cs),
(172,460,o),
(164,477,o),
(166,492,cs),
(169,508,o),
(184,520,o),
(204,523,cs),
(257,530,o),
(316,512,o),
(370,506,cs),
(425,499,o),
(481,493,o),
(537,493,cs),
(553,493,o),
(564,505,o),
(564,521,cs),
(560,608,o),
(559,688,o),
(564,775,cs),
(564,791,o),
(553,803,o),
(537,803,cs),
(356,800,o),
(208,800,o),
(27,803,cs),
(11,803,o),
(0,791,o),
(0,775,cs),
(4,689,o),
(5,620,o),
(1,533,cs),
(0,515,o),
(13,502,o),
(31,504,cs),
(57,508,o),
(115,512,o),
(139,513,c),
(100,469,o),
(59,399,o),
(42,335,cs),
(18,241,o),
(30,123,o),
(109,59,cs),
(162,16,o),
(238,0,o),
(320,0,cs),
(394,-1,o),
(471,9,o),
(535,17,cs),
(548,19,o),
(557,29,o),
(556,43,cs),
(552,160,o),
(552,299,o),
(554,419,cs),
(555,438,o),
(540,450,o),
(521,446,cs)
);
}
);
width = 589;
}
);
unicode = 84;
},
{
glyphname = U;
lastChange = "2024-09-17 20:18:41 +0000";
layers = (
{
layerId = m01;
shapes = (
{
closed = 1;
nodes = (
(412,802,ls),
(395,802,o),
(382,788,o),
(385,770,cs),
(393,721,o),
(398,691,o),
(401,666,cs),
(405,630,o),
(407,603,o),
(411,543,cs),
(420,410,o),
(418,282,o),
(400,149,cs),
(397,134,o),
(394,117,o),
(384,105,cs),
(367,82,o),
(335,87,o),
(322,111,cs),
(314,128,o),
(314,149,o),
(317,169,cs),
(344,330,o),
(360,494,o),
(353,656,cs),
(352,666,o),
(350,716,o),
(343,779,cs),
(342,793,o),
(332,802,o),
(319,802,cs),
(47,802,ls),
(32,802,o),
(23,793,o),
(25,776,cs),
(35,649,o),
(35,377,o),
(35,266,cs),
(35,16,o),
(244,-14,o),
(374,-14,cs),
(503,-14,o),
(711,16,o),
(711,266,cs),
(711,377,o),
(711,649,o),
(725,776,cs),
(726,793,o),
(718,802,o),
(702,802,cs)
);
}
);
width = 750;
}
);
unicode = 85;
},
{
glyphname = V;
lastChange = "2024-09-23 20:38:05 +0000";
layers = (
{
annotations = (
{
pos = (413.047,730.977);
type = Text;
}
);
layerId = m01;
shapes = (
{
closed = 1;
nodes = (
(410,799,ls),
(393,799,o),
(380,784,o),
(380,765,cs),
(384,561,o),
(418,405,o),
(490,219,cs),
(500,189,o),
(497,160,o),
(470,150,cs),
(448,140,o),
(430,154,o),
(415,177,cs),
(396,212,o),
(384,268,o),
(379,294,cs),
(363,361,o),
(356,428,o),
(347,497,cs),
(341,591,o),
(339,665,o),
(345,762,cs),
(346,783,o),
(333,799,o),
(315,799,cs),
(32,799,ls),
(10,799,o),
(-5,778,o),
(1,753,cs),
(32,618,o),
(73,426,o),
(95,314,cs),
(150,24,o),
(276,-19,o),
(372,-19,cs),
(508,-19,o),
(571,54,o),
(622,246,cs),
(657,379,o),
(693,509,o),
(733,639,cs),
(766,751,ls),
(775,777,o),
(757,800,o),
(734,800,cs)
);
}
);
width = 758;
}
);
unicode = 86;
},
{
glyphname = W;
lastChange = "2024-09-24 14:53:51 +0000";
layers = (
{
annotations = (
{
pos = (439.695,661.312);
type = Text;
},
{
pos = (295,893);
type = Text;
}
);
layerId = m01;
shapes = (
{
closed = 1;
nodes = (
(726,802,ls),
(711,802,o),
(701,792,o),
(702,776,cs),
(709,658,ls),
(723,496,o),
(760,336,o),
(806,180,cs),
(811,161,o),
(815,140,o),
(808,122,cs),
(799,96,o),
(769,87,o),
(750,107,cs),
(739,118,o),
(733,134,o),
(729,149,cs),
(694,279,o),
(676,405,o),
(667,538,cs),
(662,603,o),
(660,668,o),
(661,733,cs),
(663,776,ls),
(664,793,o),
(654,802,o),
(639,802,cs),
(417,802,ls),
(402,802,o),
(394,794,o),
(394,777,cs),
(395,733,ls),
(396,668,o),
(394,603,o),
(390,538,cs),
(380,405,o),
(362,279,o),
(327,149,cs),
(323,134,o),
(318,118,o),
(306,107,cs),
(287,87,o),
(257,96,o),
(248,122,cs),
(241,140,o),
(245,161,o),
(251,180,cs),
(296,336,o),
(333,496,o),
(347,658,cs),
(354,776,ls),
(355,792,o),
(345,802,o),
(330,802,cs),
(48,803,ls),
(32,803,o),
(23,793,o),
(25,777,cs),
(41,644,o),
(89,149,o),
(93,24,cs),
(94,8,o),
(102,-1,o),
(117,-1,cs),
(274,0,l),
(425,10,o),
(502,169,o),
(528,318,c),
(554,169,o),
(631,10,o),
(782,0,c),
(939,-1,ls),
(954,-1,o),
(962,8,o),
(963,24,cs),
(967,149,o),
(1015,645,o),
(1031,778,cs),
(1033,794,o),
(1024,804,o),
(1008,804,cs)
);
}
);
width = 1056;
}
);
unicode = 87;
},
{
glyphname = X;
lastChange = "2024-09-22 11:57:11 +0000";
layers = (
{
layerId = m01;
shapes = (
{
closed = 1;
nodes = (
(752,418,o),
(787,584,o),
(787,768,cs),
(787,786,o),
(775,800,o),
(759,800,cs),
(456,800,ls),
(443,800,o),
(432,791,o),
(431,777,cs),
(425,709,ls),
(420,654,o),
(423,611,o),
(429,555,cs),
(432,527,o),
(435,498,o),
(440,468,cs),
(443,444,o),
(435,423,o),
(411,421,cs),
(390,419,o),
(378,433,o),
(371,453,cs),
(360,483,o),
(361,526,o),
(361,546,cs),
(361,598,o),
(364,660,o),
(374,710,cs),
(385,767,ls),
(389,785,o),
(377,800,o),
(359,800,cs),
(55,800,ls),
(39,800,o),
(27,787,o),
(26,770,cs),
(22,608,o),
(31,426,o),
(281,400,c),
(62,378,o),
(26,215,o),
(26,33,cs),
(26,14,o),
(37,0,o),
(54,0,cs),
(360,0,ls),
(379,0,o),
(391,15,o),
(387,34,cs),
(382,58,o),
(377,85,o),
(373,111,cs),
(367,162,o),
(361,214,o),
(361,266,cs),
(361,286,o),
(360,329,o),
(371,359,cs),
(378,379,o),
(390,393,o),
(411,391,cs),
(435,389,o),
(444,368,o),
(440,344,cs),
(427,264,o),
(421,193,o),
(424,122,cs),
(425,89,o),
(428,56,o),
(432,21,cs),
(434,9,o),
(444,0,o),
(456,0,cs),
(758,0,ls),
(774,0,o),
(786,13,o),
(787,31,cs),
(791,193,o),
(782,370,o),
(536,398,c)
);
}
);
width = 813;
}
);
unicode = 88;
},
{
glyphname = Y;
lastChange = "2024-09-23 19:24:20 +0000";
layers = (
{
layerId = m01;
shapes = (
{
closed = 1;
nodes = (
(575,505,o),
(636,670,o),
(672,764,cs),
(680,783,o),
(666,801,o),
(644,801,cs),
(336,801,ls),
(319,801,o),
(307,786,o),
(310,769,cs),
(319,716,l),
(348,589,o),
(398,465,o),
(457,347,cs),
(471,318,o),
(465,295,o),
(453,283,cs),
(435,267,o),
(404,272,o),
(387,312,cs),
(341,410,o),
(312,509,o),
(291,615,cs),
(282,658,o),
(272,727,o),
(267,778,cs),
(266,792,o),
(255,801,o),
(242,801,cs),
(29,801,ls),
(7,801,o),
(-6,782,o),
(2,761,cs),
(38,667,o),
(101,504,o),
(121,427,cs),
(131,391,o),
(139,359,o),
(145,330,cs),
(154,286,o),
(153,155,o),
(152,110,cs),
(150,82,o),
(148,56,o),
(145,33,cs),
(142,15,o),
(154,1,o),
(171,1,cs),
(505,1,ls),
(522,1,o),
(534,15,o),
(531,33,cs),
(528,56,o),
(526,82,o),
(524,110,cs),
(523,155,o),
(522,286,o),
(531,330,cs),
(537,359,o),
(545,391,o),
(555,427,cs)
);
}
);
width = 654;
}
);
unicode = 89;
},
{
glyphname = Z;
lastChange = "2024-09-25 08:13:38 +0000";
layers = (
{
annotations = (
{
pos = (659.357,450.166);
type = Text;
}
);
layerId = m01;
shapes = (
{
closed = 1;
nodes = (
(685,41,o),
(681,76,o),
(681,110,cs),
(681,243,ls),
(681,265,o),
(685,312,o),
(685,368,cs),
(685,403,o),
(648,416,o),
(623,387,cs),
(543,294,o),
(445,198,o),
(337,118,cs),
(299,89,o),
(273,91,o),
(262,108,cs),
(235,151,o),
(300,197,o),
(331,218,cs),
(390,256,o),
(441,305,o),
(496,348,cs),
(509,358,o),
(521,370,o),
(534,382,cs),
(609,452,o),
(680,528,o),
(680,637,cs),
(678,727,o),
(664,801,o),
(514,801,cs),
(64,802,ls),
(46,802,o),
(38,798,o),
(39,791,cs),
(51,746,o),
(52,675,o),
(52,631,cs),
(52,608,o),
(52,534,o),
(51,479,cs),
(50,441,o),
(84,425,o),
(111,452,cs),
(177,518,o),
(261,579,o),
(344,622,cs),
(362,633,o),
(388,642,o),
(409,639,cs),
(445,637,o),
(450,605,o),
(424,585,cs),
(390,558,o),
(348,538,o),
(310,515,cs),
(190,438,ls),
(136,404,o),
(85,362,o),
(55,306,cs),
(20,242,o),
(13,147,o),
(47,81,cs),
(77,22,o),
(140,1,o),
(202,1,cs),
(665,0,ls),
(684,0,o),
(692,4,o),
(690,13,cs)
);
}
);
width = 715;
}
);
unicode = 90;
},
{
glyphname = Z.001;
layers = (
{
annotations = (
{
pos = (659.357,450.166);
type = Text;
}
);
layerId = m01;
shapes = (
{
closed = 1;
nodes = (
(641,601,o),
(604,528,o),
(514,513,c),
(649,493,o),
(633,403,o),
(630,297,c),
(628,285,o),
(619,277,o),
(605,278,cs),
(493,293,o),
(382,305,o),
(269,289,cs),
(234,284,o),
(133,276,o),
(154,227,cs),
(169,191,o),
(226,221,o),
(257,227,cs),
(348,243,o),
(441,257,o),
(533,255,cs),
(560,254,o),
(587,252,o),
(613,249,c),
(622,249,o),
(630,243,o),
(630,236,cs),
(632,165,o),
(632,92,o),
(630,21,cs),
(630,10,o),
(619,4,o),
(607,4,cs),
(586,3,o),
(565,4,o),
(545,4,cs),
(405,12,o),
(241,-24,o),
(110,33,c),
(-8,93,o),
(8,267,o),
(141,290,c),
(8,311,o),
(26,397,o),
(26,501,cs),
(26,512,o),
(33,521,o),
(43,523,cs),
(49,524,o),
(233,503,o),
(319,508,cs),
(368,513,o),
(452,511,o),
(493,542,cs),
(514,558,o),
(505,590,o),
(476,590,cs),
(428,590,o),
(382,570,o),
(334,562,cs),
(240,546,o),
(140,540,o),
(45,552,cs),
(33,553,o),
(26,561,o),
(26,573,cs),
(26,775,ls),
(26,790,o),
(36,798,o),
(53,798,c),
(202,784,o),
(570,860,o),
(620,685,cs)
);
}
);
width = 657;
}
);
},
{
glyphname = a;
lastChange = "2024-09-17 22:05:35 +0000";
layers = (
{
annotations = (
{
pos = (353.383,467.531);
type = Text;
}
);
layerId = m01;
shapes = (
{
closed = 1;
nodes = (
(332,260,o),
(292,195,o),
(311,116,cs),
(316,96,o),
(313,80,o),
(295,87,cs),
(270,95,o),
(262,126,o),
(259,150,cs),
(255,181,o),
(259,215,o),
(273,243,cs),
(296,294,o),
(342,332,o),
(389,360,cs),
(412,373,o),
(388,338,o),
(376,321,cs)
);
},
{
closed = 1;
nodes = (
(12,34,o),
(108,-28,o),
(210,-14,cs),
(252,-8,o),
(292,22,o),
(315,59,c),
(318,49,o),
(326,24,o),
(333,9,cs),
(335,4,o),
(342,0,o),
(349,0,cs),
(563,0,ls),
(576,0,o),
(585,9,o),
(584,22,cs),
(577,80,o),
(577,124,o),
(577,173,cs),
(577,399,ls),
(577,532,o),
(494,621,o),
(362,634,cs),
(304,639,o),
(229,636,o),
(165,615,cs),
(77,587,o),
(7,527,o),
(24,418,cs),
(33,364,o),
(74,318,o),
(131,335,c),
(52,310,o),
(9,220,o),
(10,141,cs)
);
},
{
closed = 1;
nodes = (
(195,402,o),
(280,435,o),
(319,442,cs),
(338,446,o),
(359,449,o),
(378,447,cs),
(388,445,o),
(394,440,o),
(396,434,cs),
(400,425,o),
(393,413,o),
(378,408,cs),
(362,402,o),
(343,400,o),
(326,397,cs),
(273,385,o),
(240,376,o),
(190,358,cs),
(171,352,o),
(153,349,o),
(164,366,c)
);
}
);
width = 594;
}
);
unicode = 97;
},
{
glyphname = b;
lastChange = "2024-09-15 19:24:06 +0000";
layers = (
{
layerId = m01;
shapes = (
{
closed = 1;
nodes = (
(391,440,o),
(376,366,o),
(369,291,cs),
(363,222,o),
(364,151,o),
(373,72,cs),
(374,64,o),
(367,56,o),
(359,56,cs),
(352,56,o),
(346,61,o),
(345,68,cs),
(328,154,o),
(319,206,o),
(317,287,cs),
(318,348,o),
(319,401,o),
(326,453,cs),
(329,473,o),
(333,517,o),
(348,546,cs),
(357,565,o),
(371,577,o),
(393,572,cs),
(416,567,o),
(421,545,o),
(416,522,c)
);
},
{
closed = 1;
nodes = (
(275,0,ls),
(285,0,o),
(295,6,o),
(298,17,cs),
(314,71,l),
(315,36,o),
(327,-12,o),
(432,-12,cs),
(571,-12,o),
(676,35,o),
(676,291,cs),
(676,546,o),
(571,619,o),
(431,619,cs),
(349,619,o),
(325,596,o),
(318,568,c),
(318,658,o),
(320,764,o),
(328,855,cs),
(330,871,o),
(318,884,o),
(302,884,cs),
(54,884,ls),
(38,884,o),
(26,872,o),
(28,855,cs),
(39,732,o),
(39,541,o),
(39,425,cs),
(39,296,ls),
(39,217,o),
(39,111,o),
(29,30,cs),
(27,13,o),
(39,0,o),
(56,0,cs)
);
}
);
width = 701;
}
);
unicode = 98;
},
{
glyphname = c;
lastChange = "2024-09-17 17:39:40 +0000";
layers = (
{
layerId = m01;
shapes = (
{
closed = 1;
nodes = (
(597,270,o),
(591,297,o),
(574,306,cs),
(546,322,o),
(512,295,o),
(488,283,cs),
(431,254,o),
(355,277,o),
(319,329,cs),
(279,386,o),
(286,467,o),
(296,532,cs),
(300,554,o),
(312,580,o),
(337,585,cs),
(356,588,o),
(376,577,o),
(367,555,cs),
(347,512,o),
(336,464,o),
(333,417,cs),
(330,376,o),
(355,345,o),
(393,334,cs),
(481,307,o),
(593,333,o),
(593,442,cs),
(592,489,o),
(574,526,o),
(539,557,cs),
(495,598,o),
(440,625,o),
(380,630,cs),
(291,639,o),
(203,618,o),
(136,569,cs),
(84,532,o),
(45,476,o),
(30,404,cs),
(6,291,o),
(22,149,o),
(105,63,cs),
(177,-9,o),
(284,-30,o),
(383,-19,cs),
(451,-10,o),
(513,26,o),
(552,81,cs),
(574,114,o),
(590,151,o),
(596,191,cs),
(598,203,o),
(599,223,o),
(598,243,cs)
);
}
);
width = 618;
}
);
unicode = 99;
},
{
glyphname = d;
lastChange = "2024-09-15 19:24:06 +0000";
layers = (
{
layerId = m01;
shapes = (
{
closed = 1;
nodes = (
(280,545,o),
(285,567,o),
(308,572,cs),
(330,577,o),
(344,565,o),
(353,546,cs),
(368,517,o),
(372,473,o),
(375,453,cs),
(382,401,o),
(383,348,o),
(384,287,cs),
(382,206,o),
(373,154,o),
(356,68,cs),
(355,61,o),
(349,56,o),
(342,56,cs),
(334,56,o),
(327,64,o),
(328,72,cs),
(337,150,o),
(338,219,o),
(333,287,cs),
(326,364,o),
(310,439,o),
(285,522,c)
);
},
{
closed = 1;
nodes = (
(662,111,o),
(662,217,o),
(662,296,cs),
(662,425,ls),
(662,541,o),
(662,732,o),
(673,855,cs),
(675,872,o),
(663,884,o),
(647,884,cs),
(399,884,ls),
(383,884,o),
(371,871,o),
(373,855,cs),
(381,764,o),
(383,658,o),
(383,568,c),
(376,596,o),
(352,619,o),
(270,619,cs),
(130,619,o),
(25,546,o),
(25,291,cs),
(25,35,o),
(130,-12,o),
(269,-12,cs),
(374,-12,o),
(386,36,o),
(387,71,c),
(403,17,ls),
(406,6,o),
(416,0,o),
(426,0,cs),
(645,0,ls),
(662,0,o),
(674,13,o),
(672,30,cs)
);
}
);
width = 701;
}
);
unicode = 100;
},
{
glyphname = e;
lastChange = "2024-09-17 17:39:59 +0000";
layers = (
{
layerId = m01;
shapes = (
{
closed = 1;
nodes = (
(276,430,o),
(270,456,o),
(271,493,cs),
(272,513,o),
(276,533,o),
(281,552,cs),
(287,570,o),
(308,578,o),
(318,577,cs),
(328,576,o),
(341,566,o),
(333,546,cs),
(326,528,o),
(322,512,o),
(318,495,cs),
(310,459,o),
(307,433,o),
(311,396,c),
(311,388,o),
(306,385,o),
(301,385,cs),
(295,385,o),
(289,390,o),
(286,396,c)
);
},
{
closed = 1;
nodes = (
(-11,297,o),
(5,152,o),
(89,65,cs),
(161,-10,o),
(269,-31,o),
(368,-20,cs),
(436,-11,o),
(499,26,o),
(538,83,cs),
(561,116,o),
(577,154,o),
(583,195,cs),
(585,207,o),
(586,228,o),
(585,249,cs),
(584,276,o),
(578,303,o),
(561,313,cs),
(532,330,o),
(498,301,o),
(474,289,cs),
(415,259,o),
(344,284,o),
(304,335,cs),
(301,339,o),
(296,343,o),
(297,349,cs),
(297,357,o),
(306,351,o),
(309,349,cs),
(327,337,o),
(341,328,o),
(365,321,cs),
(393,313,o),
(421,311,o),
(449,315,cs),
(522,325,o),
(580,372,o),
(580,452,cs),
(579,501,o),
(560,537,o),
(525,570,cs),
(481,612,o),
(425,628,o),
(365,633,cs),
(208,649,o),
(49,582,o),
(13,413,cs)
);
}
);
width = 588;
}
);
unicode = 101;
},
{
glyphname = eacute;
lastChange = "2024-09-16 15:35:59 +0000";
layers = (
{
layerId = m01;
shapes = (
{
closed = 1;
nodes = (
(491,730,o),
(480,709,o),
(457,703,cs),
(284,655,ls),
(249,645,o),
(211,664,o),
(218,694,cs),
(234,759,o),
(329,835,o),
(400,849,cs),
(420,854,o),
(438,843,o),
(446,826,cs),
(482,750,ls)
);
},
{
closed = 1;
nodes = (
(286,430,o),
(280,456,o),
(281,493,cs),
(282,513,o),
(286,533,o),
(291,552,cs),
(297,570,o),
(318,578,o),
(328,577,cs),
(338,576,o),
(351,566,o),
(343,546,cs),
(336,528,o),
(332,512,o),
(328,495,cs),
(320,459,o),
(317,433,o),
(321,396,c),
(321,388,o),
(316,385,o),
(311,385,cs),
(305,385,o),
(299,390,o),
(296,396,c)
);
},
{
closed = 1;
nodes = (
(-4,295,o),
(12,151,o),
(97,64,cs),
(170,-10,o),
(279,-31,o),
(379,-20,cs),
(448,-11,o),
(511,26,o),
(551,82,cs),
(574,115,o),
(590,153,o),
(596,194,cs),
(598,206,o),
(599,226,o),
(598,247,cs),
(597,274,o),
(591,301,o),
(574,311,cs),
(545,327,o),
(510,299,o),
(486,287,cs),
(426,257,o),
(355,282,o),
(314,332,cs),
(311,336,o),
(306,340,o),
(307,346,cs),
(307,355,o),
(316,348,o),
(319,346,cs),
(337,334,o),
(352,326,o),
(376,319,cs),
(404,311,o),
(433,309,o),
(461,313,cs),
(535,323,o),
(593,370,o),
(593,449,cs),
(592,497,o),
(573,534,o),
(538,566,cs),
(493,607,o),
(437,624,o),
(376,629,cs),
(217,645,o),
(56,578,o),
(20,410,cs)
);
}
);
width = 608;
}
);
unicode = 233;
},
{
glyphname = f;
lastChange = "2024-09-17 22:46:06 +0000";
layers = (
{
layerId = m01;
shapes = (
{
closed = 1;
nodes = (
(61,568,l),
(30,568,l),
(19,568,o),
(10,577,o),
(10,588,c),
(10,593,l),
(10,604,o),
(19,613,o),
(30,613,c),
(61,613,l),
(61,646,l),
(61,862,o),
(124,912,o),
(260,912,c),
(396,912,o),
(471,873,o),
(471,766,c),
(471,646,o),
(353,638,o),
(282,665,c),
(265,671,o),
(259,689,o),
(261,708,c),
(263,722,o),
(270,756,o),
(270,788,c),
(271,825,o),
(265,860,o),
(237,860,c),
(204,860,o),
(196,825,o),
(199,786,c),
(203,695,o),
(252,613,o),
(352,613,c),
(395,613,l),
(406,613,o),
(415,604,o),
(415,593,c),
(415,588,l),
(415,577,o),
(406,568,o),
(395,568,c),
(352,568,l),
(352,466,l),
(352,335,o),
(352,159,o),
(363,30,c),
(365,13,o),
(352,0,o),
(335,0,c),
(78,0,l),
(61,0,o),
(48,13,o),
(50,29,c),
(61,162,o),
(61,346,o),
(61,481,c)
);
}
);
width = 401;
}
);
unicode = 102;
},
{
glyphname = g;
lastChange = "2024-09-25 12:19:50 +0000";
layers = (
{
layerId = m01;
shapes = (
{
closed = 1;
nodes = (
(432,-70,o),
(363,-92,o),
(294,-85,cs),
(232,-80,o),
(171,-54,o),
(135,10,cs),
(126,27,o),
(126,39,o),
(132,43,cs),
(136,45,o),
(143,44,o),
(151,38,cs),
(166,29,o),
(176,14,o),
(190,4,cs),
(204,-7,o),
(221,-14,o),
(238,-19,cs),
(273,-31,o),
(311,-33,o),
(347,-26,cs),
(373,-22,o),
(397,-13,o),
(421,-4,cs),
(439,3,o),
(472,19,o),
(477,-8,cs),
(480,-23,o),
(472,-37,o),
(461,-46,cs)
);
},
{
closed = 1;
nodes = (
(35,204,o),
(61,124,o),
(105,75,c),
(92,68,o),
(81,61,o),
(75,54,cs),
(19,-9,o),
(12,-106,o),
(44,-182,cs),
(79,-266,o),
(161,-319,o),
(253,-341,cs),
(333,-360,o),
(421,-354,o),
(489,-322,cs),
(610,-265,o),
(639,-117,o),
(638,5,cs),
(637,79,o),
(635,151,o),
(635,202,cs),
(635,327,ls),
(635,404,o),
(635,502,o),
(644,581,cs),
(646,598,o),
(635,610,o),
(618,610,cs),
(413,610,ls),
(403,610,o),
(393,604,o),
(390,594,cs),
(376,546,l),
(375,575,o),
(363,627,o),
(264,627,cs),
(134,627,o),
(35,581,o),
(35,332,cs)
);
},
{
closed = 1;
nodes = (
(272,540,o),
(284,555,o),
(298,560,cs),
(314,565,o),
(333,557,o),
(344,536,cs),
(357,509,o),
(361,468,o),
(364,449,cs),
(371,400,o),
(373,352,o),
(373,294,cs),
(373,219,o),
(362,171,o),
(347,90,cs),
(344,73,o),
(318,78,o),
(320,94,cs),
(328,168,o),
(329,232,o),
(324,295,cs),
(318,367,o),
(301,436,o),
(280,513,cs)
);
}
);
width = 669;
}
);
unicode = 103;
},
{
glyphname = h;
lastChange = "2024-09-15 19:24:06 +0000";
layers = (
{
layerId = m01;
shapes = (
{
closed = 1;
nodes = (
(295,148,o),
(291,259,o),
(306,365,cs),
(309,385,o),
(313,428,o),
(327,457,cs),
(337,475,o),
(351,488,o),
(371,483,cs),
(395,476,o),
(401,457,o),
(394,433,cs),
(351,289,o),
(335,171,o),
(349,22,cs),
(350,9,o),
(360,0,o),
(373,0,cs),
(605,0,ls),
(621,0,o),
(632,12,o),
(631,28,cs),
(623,145,o),
(623,295,o),
(623,384,cs),
(623,518,o),
(618,631,o),
(463,631,cs),
(366,631,o),
(329,560,o),
(315,502,c),
(315,617,o),
(318,754,o),
(327,856,cs),
(329,873,o),
(317,885,o),
(301,885,cs),
(62,885,ls),
(46,885,o),
(34,873,o),
(35,857,cs),
(45,730,o),
(45,542,o),
(45,419,cs),
(45,298,o),
(45,144,o),
(36,28,cs),
(34,12,o),
(46,0,o),
(62,0,cs),
(288,0,ls),
(306,0,o),
(318,14,o),
(315,32,cs)
);
}
);
width = 661;
}
);
unicode = 104;
},
{
glyphname = i;
lastChange = "2024-09-15 20:05:07 +0000";
layers = (
{
layerId = m01;
shapes = (
{
closed = 1;
nodes = (
(95,910,o),
(15,850,o),
(15,777,cs),
(15,707,o),
(95,647,o),
(158,647,cs),
(221,647,o),
(301,707,o),
(301,777,cs),
(301,850,o),
(221,910,o),
(158,910,cs)
);
},
{
closed = 1;
nodes = (
(37,0,ls),
(20,0,o),
(8,13,o),
(10,30,cs),
(19,107,o),
(19,210,o),
(19,286,cs),
(19,363,o),
(19,494,o),
(10,580,cs),
(8,597,o),
(19,610,o),
(36,610,cs),
(279,610,ls),
(296,610,o),
(307,597,o),
(305,580,cs),
(296,497,o),
(296,382,o),
(296,301,cs),
(296,219,o),
(296,111,o),
(305,30,cs),
(307,13,o),
(296,0,o),
(279,0,cs)
);
}
);
width = 315;
}
);
unicode = 105;
},
{
glyphname = j;
lastChange = "2024-09-25 09:32:05 +0000";
layers = (
{
layerId = m01;
shapes = (
{
closed = 1;
nodes = (
(131,910,o),
(51,850,o),
(51,777,cs),
(51,707,o),
(131,647,o),
(194,647,cs),
(257,647,o),
(337,707,o),
(337,777,cs),
(337,850,o),
(257,910,o),
(194,910,cs)
);
},
{
closed = 1;
nodes = (
(70,613,ls),
(54,613,o),
(43,600,o),
(45,584,cs),
(61,447,o),
(53,273,o),
(55,139,cs),
(55,98,o),
(61,40,o),
(76,0,cs),
(109,-88,o),
(131,-120,o),
(127,-214,cs),
(125,-245,o),
(94,-264,o),
(69,-245,cs),
(61,-238,o),
(56,-225,o),
(56,-212,cs),
(54,-156,o),
(50,-125,o),
(43,-76,cs),
(41,-62,o),
(32,-51,o),
(19,-48,cs),
(-52,-32,o),
(-160,-45,o),
(-160,-166,cs),
(-160,-266,o),
(-61,-317,o),
(60,-317,cs),
(232,-317,o),
(332,-269,o),
(332,21,cs),
(335,177,o),
(324,424,o),
(342,585,cs),
(343,601,o),
(332,613,o),
(316,613,cs)
);
}
);
width = 367;
}
);
unicode = 106;
},
{
glyphname = k;
lastChange = "2024-09-17 17:40:43 +0000";
layers = (
{
layerId = m01;
shapes = (
{
closed = 1;
nodes = (
(305,-1,ls),
(323,-1,o),
(335,4,o),
(332,22,cs),
(320,87,o),
(314,196,o),
(315,213,cs),
(316,233,o),
(314,267,o),
(328,282,cs),
(343,300,o),
(379,295,o),
(379,269,cs),
(380,209,o),
(365,151,o),
(377,92,cs),
(392,24,o),
(438,-16,o),
(508,-18,cs),
(559,-17,o),
(607,-8,o),
(649,2,cs),
(663,5,o),
(669,15,o),
(669,30,cs),
(666,96,o),
(665,244,o),
(666,307,cs),
(667,319,o),
(658,318,o),
(642,308,cs),
(607,285,o),
(562,274,o),
(544,274,cs),
(482,274,o),
(446,290,o),
(416,305,cs),
(411,307,o),
(413,315,o),
(419,314,cs),
(518,302,o),
(667,289,o),
(667,488,cs),
(667,517,o),
(664,560,o),
(657,589,cs),
(653,603,o),
(643,609,o),
(629,609,cs),
(399,609,ls),
(384,609,o),
(374,601,o),
(373,585,cs),
(369,519,o),
(373,452,o),
(380,385,cs),
(382,374,o),
(381,363,o),
(374,354,cs),
(363,342,o),
(340,342,o),
(328,356,cs),
(322,364,o),
(320,373,o),
(319,382,cs),
(314,450,o),
(320,749,o),
(331,857,cs),
(332,874,o),
(324,883,o),
(307,883,cs),
(49,883,ls),
(33,883,o),
(24,874,o),
(25,857,cs),
(36,733,o),
(36,528,o),
(36,412,cs),
(36,296,o),
(36,135,o),
(26,22,cs),
(25,10,o),
(29,2,o),
(37,-1,c)
);
}
);
width = 694;
}
);
unicode = 107;
},
{
glyphname = l;
lastChange = "2024-09-15 19:24:06 +0000";
layers = (
{
layerId = m01;
shapes = (
{
closed = 1;
nodes = (
(54,0,ls),
(38,0,o),
(26,12,o),
(28,29,cs),
(38,141,o),
(38,298,o),
(38,413,cs),
(38,529,o),
(38,732,o),
(28,855,cs),
(26,872,o),
(38,884,o),
(54,884,cs),
(300,884,ls),
(316,884,o),
(328,872,o),
(326,855,cs),
(316,733,o),
(315,545,o),
(315,426,cs),
(315,307,o),
(315,145,o),
(325,29,cs),
(327,12,o),
(315,0,o),
(299,0,cs)
);
}
);
width = 354;
}
);
unicode = 108;
},
{
glyphname = m;
lastChange = "2024-09-17 17:37:49 +0000";
layers = (
{
layerId = m01;
shapes = (
{
closed = 1;
nodes = (
(934,520,o),
(928,631,o),
(769,631,cs),
(658,631,o),
(625,545,o),
(615,486,c),
(605,570,o),
(572,631,o),
(454,631,cs),
(344,631,o),
(309,548,o),
(300,489,c),
(293,587,ls),
(292,600,o),
(281,610,o),
(268,610,cs),
(55,610,ls),
(38,610,o),
(27,597,o),
(29,580,cs),
(38,496,o),
(38,392,o),
(38,309,cs),
(38,226,o),
(38,113,o),
(29,30,cs),
(27,13,o),
(38,0,o),
(55,0,cs),
(285,0,ls),
(303,0,o),
(314,14,o),
(311,32,cs),
(301,92,o),
(295,138,o),
(293,201,cs),
(294,262,o),
(295,314,o),
(302,365,cs),
(304,385,o),
(309,428,o),
(323,457,cs),
(333,475,o),
(346,488,o),
(367,483,cs),
(389,479,o),
(397,455,o),
(390,433,cs),
(347,289,o),
(331,171,o),
(345,22,cs),
(346,9,o),
(356,0,o),
(369,0,cs),
(600,0,ls),
(618,0,o),
(630,14,o),
(627,32,cs),
(616,92,o),
(611,138,o),
(609,201,cs),
(610,262,o),
(610,314,o),
(617,365,cs),
(620,385,o),
(624,428,o),
(639,457,cs),
(648,475,o),
(662,488,o),
(683,483,cs),
(706,478,o),
(711,456,o),
(706,433,cs),
(663,289,o),
(647,171,o),
(661,22,cs),
(662,9,o),
(672,0,o),
(685,0,cs),
(916,0,ls),
(932,0,o),
(943,12,o),
(942,28,cs),
(934,145,o),
(934,303,o),
(934,389,cs)
);
}
);
width = 969;
}
);
unicode = 109;
},
{
glyphname = n;
lastChange = "2024-09-15 19:24:06 +0000";
layers = (
{
layerId = m01;
shapes = (
{
closed = 1;
nodes = (
(618,516,o),
(612,625,o),
(453,625,cs),
(344,625,o),
(309,543,o),
(299,484,c),
(292,589,ls),
(291,602,o),
(281,612,o),
(268,612,cs),
(55,612,ls),
(38,612,o),
(27,599,o),
(29,582,cs),
(38,499,o),
(38,388,o),
(38,306,cs),
(38,223,o),
(38,112,o),
(29,29,cs),
(27,12,o),
(38,-1,o),
(55,-1,cs),
(277,-1,ls),
(295,-1,o),
(306,13,o),
(303,31,cs),
(284,143,o),
(280,257,o),
(294,360,cs),
(297,380,o),
(301,423,o),
(316,451,cs),
(325,470,o),
(339,482,o),
(359,477,cs),
(383,472,o),
(389,450,o),
(382,427,cs),
(340,285,o),
(325,168,o),
(337,22,cs),
(338,8,o),
(349,-1,o),
(362,-1,cs),
(600,-1,ls),
(616,-1,o),
(627,11,o),
(626,27,cs),
(618,143,o),
(618,300,o),
(618,385,cs)
);
}
);
width = 653;
}
);
unicode = 110;
},
{
glyphname = o;
lastChange = "2024-09-16 15:38:57 +0000";
layers = (
{
layerId = m01;
shapes = (
{
closed = 1;
nodes = (
(355,443,o),
(339,370,o),
(332,297,cs),
(326,226,o),
(327,153,o),
(336,72,cs),
(337,64,o),
(330,56,o),
(322,56,cs),
(315,56,o),
(309,61,o),
(308,68,cs),
(291,154,o),
(282,206,o),
(280,295,cs),
(281,348,o),
(282,401,o),
(289,453,cs),
(292,473,o),
(296,517,o),
(311,546,cs),
(320,565,o),
(334,577,o),
(356,572,cs),
(379,567,o),
(384,545,o),
(379,522,cs)
);
},
{
closed = 1;
nodes = (
(-2,188,o),
(48,73,o),
(154,25,cs),
(206,0,o),
(269,-13,o),
(320,-13,cs),
(384,-13,o),
(457,7,o),
(518,50,cs),
(631,130,o),
(660,302,o),
(607,447,cs),
(561,569,o),
(442,637,o),
(294,626,cs),
(108,612,o),
(2,502,o),
(0,318,cs)
);
}
);
width = 633;
}
);
unicode = 111;
},
{
glyphname = p;
lastChange = "2024-09-15 19:24:06 +0000";
layers = (
{
layerId = m01;
shapes = (
{
closed = 1;
nodes = (
(390,420,o),
(372,346,o),
(366,269,cs),
(360,201,o),
(361,131,o),
(370,53,cs),
(372,36,o),
(345,30,o),
(342,49,cs),
(325,135,o),
(314,187,o),
(314,268,cs),
(314,329,o),
(316,382,o),
(323,434,cs),
(326,454,o),
(330,498,o),
(345,527,cs),
(356,550,o),
(377,558,o),
(393,553,cs),
(408,548,o),
(421,531,o),
(413,503,cs)
);
},
{
closed = 1;
nodes = (
(23,-292,o),
(35,-304,o),
(51,-304,cs),
(299,-304,ls),
(315,-304,o),
(327,-292,o),
(325,-275,cs),
(317,-179,o),
(315,-49,o),
(315,42,c),
(322,14,o),
(346,-9,o),
(428,-9,cs),
(568,-9,o),
(673,64,o),
(673,319,cs),
(673,575,o),
(568,622,o),
(429,622,cs),
(324,622,o),
(312,574,o),
(311,539,c),
(295,593,ls),
(292,604,o),
(282,610,o),
(272,610,cs),
(53,610,ls),
(36,610,o),
(24,597,o),
(26,580,cs),
(36,499,o),
(36,393,o),
(36,314,cs),
(36,185,ls),
(36,69,o),
(36,-148,o),
(25,-275,cs)
);
}
);
width = 698;
}
);
unicode = 112;
},
{
glyphname = q;
lastChange = "2024-09-17 22:57:10 +0000";
layers = (
{
layerId = m01;
shapes = (
{
closed = 1;
nodes = (
(277,531,o),
(290,548,o),
(305,553,cs),
(321,558,o),
(342,550,o),
(353,527,cs),
(368,498,o),
(372,454,o),
(375,434,cs),
(382,382,o),
(384,329,o),
(384,268,cs),
(384,187,o),
(373,135,o),
(356,49,cs),
(353,30,o),
(326,36,o),
(328,53,cs),
(337,131,o),
(338,201,o),
(332,269,cs),
(326,346,o),
(308,420,o),
(285,503,cs)
);
},
{
closed = 1;
nodes = (
(662,-148,o),
(662,69,o),
(662,185,cs),
(662,314,ls),
(662,393,o),
(662,499,o),
(672,580,cs),
(674,597,o),
(662,610,o),
(645,610,cs),
(426,610,ls),
(416,610,o),
(406,604,o),
(403,593,cs),
(387,539,l),
(386,574,o),
(374,622,o),
(269,622,cs),
(130,622,o),
(25,575,o),
(25,319,cs),
(25,64,o),
(130,-9,o),
(270,-9,cs),
(352,-9,o),
(376,14,o),
(383,42,c),
(383,-49,o),
(381,-179,o),
(373,-275,cs),
(371,-292,o),
(383,-304,o),
(399,-304,cs),
(647,-304,ls),
(663,-304,o),
(675,-292,o),
(673,-275,cs)
);
}
);
width = 698;
}
);
unicode = 113;
},
{
glyphname = r;
lastChange = "2024-09-15 18:52:58 +0000";
layers = (
{
layerId = m01;
shapes = (
{
closed = 1;
nodes = (
(354,622,o),
(322,534,o),
(311,449,c),
(301,587,ls),
(300,600,o),
(289,610,o),
(276,610,cs),
(51,610,ls),
(34,610,o),
(23,597,o),
(25,580,cs),
(34,497,o),
(34,385,o),
(34,303,cs),
(34,220,o),
(34,112,o),
(25,30,cs),
(23,13,o),
(34,0,o),
(51,0,cs),
(294,0,ls),
(311,0,o),
(322,13,o),
(320,30,cs),
(313,95,o),
(312,170,o),
(311,242,cs),
(311,308,o),
(314,404,o),
(345,468,cs),
(355,490,o),
(375,506,o),
(396,501,cs),
(427,493,o),
(418,459,o),
(401,425,cs),
(358,338,ls),
(335,291,o),
(423,267,o),
(455,264,cs),
(561,253,o),
(626,360,o),
(626,453,cs),
(626,582,o),
(558,622,o),
(470,622,cs)
);
}
);
width = 626;
}
);
unicode = 114;
},
{
glyphname = s;
lastChange = "2024-09-17 19:13:03 +0000";
layers = (
{
layerId = m01;
shapes = (
{
closed = 1;
nodes = (
(564,278,o),
(551,304,o),
(536,325,cs),
(463,428,o),
(323,460,o),
(210,499,c),
(190,508,o),
(181,521,o),
(186,532,cs),
(189,539,o),
(198,544,o),
(216,544,cs),
(266,545,o),
(316,529,o),
(361,505,c),
(401,479,o),
(437,449,o),
(469,412,cs),
(479,400,o),
(492,381,o),
(510,384,cs),
(564,394,o),
(592,512,o),
(521,577,cs),
(475,618,o),
(418,635,o),
(357,640,cs),
(324,643,o),
(293,642,o),
(262,639,cs),
(138,631,o),
(38,582,o),
(26,450,cs),
(22,403,o),
(31,354,o),
(56,313,cs),
(65,299,o),
(75,286,o),
(87,274,cs),
(147,214,o),
(225,178,o),
(307,157,cs),
(322,153,o),
(338,149,o),
(354,142,cs),
(365,138,o),
(385,129,o),
(388,115,cs),
(391,100,o),
(377,92,o),
(364,90,cs),
(325,88,o),
(286,98,o),
(251,115,cs),
(216,134,o),
(183,158,o),
(154,186,cs),
(141,198,o),
(127,214,o),
(115,229,cs),
(104,241,o),
(88,254,o),
(70,246,cs),
(43,233,o),
(30,203,o),
(27,171,cs),
(23,130,o),
(34,89,o),
(64,62,cs),
(127,-3,o),
(255,-31,o),
(355,-20,cs),
(418,-13,o),
(490,19,o),
(531,70,cs),
(570,119,o),
(578,189,o),
(569,249,cs)
);
}
);
width = 597;
}
);
unicode = 115;
},
{
glyphname = t;
lastChange = "2024-09-16 16:46:44 +0000";
layers = (
{
layerId = m01;
shapes = (
{
closed = 1;
nodes = (
(288,863,ls),
(311,873,o),
(333,857,o),
(331,832,cs),
(328,801,o),
(326,769,o),
(325,736,c),
(369,736,ls),
(383,736,o),
(394,726,o),
(394,714,cs),
(394,702,o),
(383,692,o),
(369,692,cs),
(324,692,l),
(321,617,o),
(321,427,o),
(321,366,cs),
(321,265,o),
(321,128,o),
(331,29,cs),
(332,13,o),
(320,0,o),
(304,0,cs),
(61,0,ls),
(45,0,o),
(33,13,o),
(34,29,cs),
(53,212,o),
(48,519,o),
(48,692,c),
(10,692,ls),
(-4,692,o),
(-15,703,o),
(-15,717,cs),
(-15,721,ls),
(-15,730,o),
(-9,739,o),
(-1,742,cs)
);
}
);
width = 379;
}
);
unicode = 116;
},
{
glyphname = u;
lastChange = "2024-09-20 22:01:46 +0000";
layers = (
{
layerId = m01;
shapes = (
{
closed = 1;
nodes = (
(18,94,o),
(24,-15,o),
(183,-15,cs),
(292,-15,o),
(327,67,o),
(337,126,c),
(344,23,ls),
(345,10,o),
(355,0,o),
(368,0,cs),
(581,0,ls),
(598,0,o),
(609,13,o),
(607,30,cs),
(598,112,o),
(598,222,o),
(598,304,cs),
(598,387,o),
(598,497,o),
(607,580,cs),
(609,597,o),
(598,610,o),
(581,610,cs),
(359,610,ls),
(341,610,o),
(330,596,o),
(333,578,cs),
(343,516,o),
(350,459,o),
(350,406,cs),
(350,354,o),
(349,302,o),
(342,250,cs),
(339,230,o),
(335,187,o),
(320,159,cs),
(307,132,o),
(283,126,o),
(267,135,cs),
(255,143,o),
(247,159,o),
(254,183,cs),
(278,264,o),
(293,337,o),
(300,412,cs),
(304,468,o),
(304,525,o),
(299,587,cs),
(298,601,o),
(287,610,o),
(274,610,cs),
(36,610,ls),
(20,610,o),
(9,598,o),
(10,582,cs),
(18,466,o),
(18,310,o),
(18,225,cs)
);
}
);
width = 617;
}
);
unicode = 117;
},
{
glyphname = v;
lastChange = "2024-09-22 20:04:30 +0000";
layers = (
{
layerId = m01;
shapes = (
{
closed = 1;
nodes = (
(353,610,ls),
(338,610,o),
(327,599,o),
(327,584,cs),
(331,427,o),
(360,307,o),
(422,164,cs),
(431,141,o),
(428,119,o),
(405,111,cs),
(385,103,o),
(370,114,o),
(358,132,cs),
(341,159,o),
(331,202,o),
(326,222,cs),
(313,273,o),
(306,325,o),
(299,378,cs),
(293,450,o),
(292,507,o),
(297,582,cs),
(298,598,o),
(287,610,o),
(271,610,cs),
(28,610,ls),
(9,610,o),
(-4,594,o),
(1,575,cs),
(28,471,o),
(63,323,o),
(82,237,cs),
(130,14,o),
(237,-19,o),
(320,-19,cs),
(437,-19,o),
(491,37,o),
(535,185,cs),
(565,287,o),
(596,387,o),
(630,487,cs),
(659,573,ls),
(666,593,o),
(652,611,o),
(631,611,cs)
);
}
);
width = 651;
}
);
unicode = 118;
},
{
glyphname = w;
lastChange = "2024-09-07 22:08:45 +0000";
layers = (
{
layerId = m01;
shapes = (
{
closed = 1;
nodes = (
(691,610,ls),
(678,610,o),
(668,601,o),
(667,588,cs),
(651,435,o),
(667,314,o),
(710,167,cs),
(718,142,o),
(708,125,o),
(694,118,cs),
(678,111,o),
(657,118,o),
(644,143,cs),
(629,172,o),
(625,215,o),
(622,235,cs),
(606,346,o),
(613,457,o),
(634,578,cs),
(637,596,o),
(625,610,o),
(607,610,cs),
(374,610,ls),
(356,610,o),
(344,596,o),
(347,578,cs),
(370,449,o),
(374,349,o),
(358,235,cs),
(356,215,o),
(351,172,o),
(337,143,cs),
(321,114,o),
(299,110,o),
(284,120,cs),
(272,128,o),
(264,146,o),
(270,167,cs),
(314,314,o),
(330,435,o),
(314,588,cs),
(313,601,o),
(303,610,o),
(290,610,cs),
(52,610,ls),
(37,610,o),
(25,599,o),
(26,583,cs),
(31,458,o),
(40,276,o),
(42,208,cs),
(45,78,o),
(48,-10,o),
(206,-10,cs),
(315,-10,o),
(348,54,o),
(358,112,c),
(367,70,o),
(370,25,o),
(437,-4,cs),
(471,-19,o),
(509,-19,o),
(543,-4,cs),
(608,25,o),
(613,72,o),
(622,112,c),
(632,54,o),
(665,-10,o),
(774,-10,cs),
(932,-10,o),
(935,78,o),
(938,208,cs),
(940,276,o),
(949,458,o),
(954,583,cs),
(955,599,o),
(943,610,o),
(928,610,cs)
);
}
);
width = 980;
}
);
unicode = 119;
},
{
glyphname = x;
lastChange = "2024-09-07 22:12:08 +0000";
layers = (
{
layerId = m01;
shapes = (
{
closed = 1;
nodes = (
(698,147,o),
(690,282,o),
(474,303,c),
(664,319,o),
(695,445,o),
(695,585,cs),
(695,599,o),
(684,610,o),
(670,610,cs),
(406,610,ls),
(392,610,o),
(381,600,o),
(380,585,cs),
(379,517,o),
(385,447,o),
(397,371,cs),
(401,347,o),
(392,327,o),
(368,325,cs),
(347,322,o),
(335,336,o),
(328,356,cs),
(317,386,o),
(319,430,o),
(319,449,cs),
(318,491,o),
(322,536,o),
(327,580,cs),
(329,597,o),
(318,610,o),
(301,610,cs),
(51,610,ls),
(37,610,o),
(26,600,o),
(25,586,cs),
(22,463,o),
(31,325,o),
(251,304,c),
(57,288,o),
(25,164,o),
(25,25,cs),
(25,11,o),
(36,0,o),
(50,0,cs),
(303,0,ls),
(319,0,o),
(331,13,o),
(329,29,cs),
(325,68,o),
(318,134,o),
(319,171,cs),
(319,190,o),
(317,234,o),
(328,264,cs),
(335,284,o),
(347,298,o),
(368,295,cs),
(392,293,o),
(401,273,o),
(397,249,cs),
(384,169,o),
(378,97,o),
(381,24,cs),
(381,10,o),
(392,0,o),
(406,0,cs),
(669,0,ls),
(683,0,o),
(694,10,o),
(695,24,cs)
);
}
);
width = 720;
}
);
unicode = 120;
},
{
glyphname = y;
lastChange = "2024-09-25 12:18:39 +0000";
layers = (
{
layerId = m01;
shapes = (
{
closed = 1;
nodes = (
(385,610,ls),
(370,610,o),
(359,599,o),
(359,584,cs),
(361,508,o),
(369,442,o),
(383,378,cs),
(399,307,o),
(421,238,o),
(455,164,cs),
(465,142,o),
(461,121,o),
(439,111,cs),
(419,104,o),
(404,115,o),
(392,132,cs),
(374,157,o),
(365,201,o),
(360,220,cs),
(346,270,o),
(339,322,o),
(332,373,cs),
(325,446,o),
(325,505,o),
(329,582,cs),
(330,598,o),
(318,610,o),
(303,610,cs),
(13,610,ls),
(-12,610,o),
(-25,588,o),
(-14,565,cs),
(-9,553,o),
(-4,542,o),
(0,534,cs),
(7,519,o),
(13,504,o),
(20,489,cs),
(27,473,o),
(33,456,o),
(39,439,cs),
(64,372,o),
(86,304,o),
(109,236,cs),
(134,160,o),
(153,43,o),
(227,0,cs),
(255,-16,o),
(287,-23,o),
(319,-21,cs),
(335,-20,o),
(351,-18,o),
(366,-13,cs),
(380,-9,o),
(395,0,o),
(410,-1,cs),
(431,-2,o),
(424,-26,o),
(408,-36,cs),
(333,-80,o),
(241,-109,o),
(155,-81,cs),
(137,-75,o),
(120,-68,o),
(105,-59,cs),
(91,-49,o),
(79,-38,o),
(67,-27,cs),
(46,-6,o),
(20,-2,o),
(4,-32,cs),
(-22,-75,o),
(-26,-150,o),
(-11,-198,cs),
(25,-317,o),
(166,-370,o),
(279,-343,cs),
(331,-329,o),
(367,-298,o),
(396,-255,cs),
(441,-188,o),
(507,55,o),
(558,212,cs),
(587,301,o),
(613,395,o),
(644,487,cs),
(673,573,ls),
(680,593,o),
(666,611,o),
(645,611,cs)
);
}
);
width = 655;
}
);
unicode = 121;
},
{
glyphname = z;
lastChange = "2024-09-25 11:22:53 +0000";
layers = (
{
annotations = (
{
pos = (445.473,258.699);
type = Text;
}
);
layerId = m01;
shapes = (
{
closed = 1;
nodes = (
(592,31,o),
(589,58,o),
(589,84,cs),
(589,185,ls),
(589,202,o),
(592,238,o),
(592,280,cs),
(592,307,o),
(561,317,o),
(539,295,cs),
(471,224,o),
(386,151,o),
(293,90,cs),
(261,68,o),
(238,69,o),
(229,82,cs),
(206,115,o),
(262,150,o),
(288,166,cs),
(339,195,o),
(383,232,o),
(430,265,cs),
(441,273,o),
(451,282,o),
(463,291,cs),
(527,344,o),
(588,402,o),
(588,485,cs),
(587,554,o),
(574,610,o),
(446,610,cs),
(59,611,ls),
(43,611,o),
(36,608,o),
(37,603,cs),
(48,568,o),
(49,514,o),
(49,481,cs),
(49,463,o),
(49,407,o),
(48,365,cs),
(46,336,o),
(76,324,o),
(99,344,cs),
(156,395,o),
(228,441,o),
(299,474,cs),
(315,482,o),
(337,489,o),
(356,487,cs),
(386,485,o),
(390,461,o),
(368,446,cs),
(339,425,o),
(303,410,o),
(270,392,cs),
(167,334,ls),
(121,308,o),
(77,276,o),
(51,233,cs),
(21,184,o),
(15,112,o),
(44,62,cs),
(70,17,o),
(124,1,o),
(177,1,cs),
(575,0,ls),
(591,0,o),
(598,3,o),
(597,10,cs)
);
}
);
width = 622;
}
);
unicode = 122;
},
{
glyphname = zero;
lastChange = "2024-09-24 15:00:16 +0000";
layers = (
{
layerId = m01;
shapes = (
{
closed = 1;
nodes = (
(388,583,o),
(367,489,o),
(358,397,cs),
(349,305,o),
(351,212,o),
(363,109,cs),
(364,99,o),
(355,88,o),
(344,88,cs),
(336,88,o),
(328,94,o),
(327,104,cs),
(305,213,o),
(293,280,o),
(291,393,cs),
(292,462,o),
(293,529,o),
(303,596,cs),
(307,622,o),
(312,678,o),
(331,715,cs),
(342,739,o),
(360,755,o),
(388,748,cs),
(418,741,o),
(424,714,o),
(418,684,cs)
);
},
{
closed = 1;
nodes = (
(13,248,o),
(65,99,o),
(175,37,cs),
(230,4,o),
(296,-13,o),
(349,-13,cs),
(416,-13,o),
(493,13,o),
(556,69,cs),
(675,173,o),
(705,397,o),
(651,586,cs),
(602,744,o),
(477,832,o),
(323,818,cs),
(127,800,o),
(17,657,o),
(15,417,cs)
);
}
);
width = 692;
}
);
unicode = 48;
},
{
glyphname = one;
lastChange = "2024-04-11 02:38:18 +0000";
layers = (
{
guides = (
{
angle = 0.5455;
pos = (38,472);
},
{
pos = (-98,666);
}
);
layerId = m01;
shapes = (
{
closed = 1;
nodes = (
(87,0,ls),
(71,0,o),
(62,9,o),
(63,26,cs),
(78,212,o),
(73,534,o),
(73,694,c),
(45,694,ls),
(29,694,o),
(20,701,o),
(20,713,cs),
(20,727,o),
(26,739,o),
(39,742,cs),
(330,818,ls),
(365,827,o),
(390,818,o),
(388,798,cs),
(379,762,o),
(373,664,o),
(369,625,cs),
(363,550,o),
(363,377,o),
(363,316,cs),
(363,271,o),
(363,129,o),
(376,27,cs),
(378,10,o),
(370,0,o),
(353,0,cs)
);
}
);
width = 408;
}
);
unicode = 49;
},
{
glyphname = two;
lastChange = "2024-09-25 03:54:22 +0000";
layers = (
{
layerId = m01;
shapes = (
{
closed = 1;
nodes = (
(210,291,o),
(260,302,o),
(314,315,cs),
(406,338,o),
(510,378,o),
(552,413,cs),
(600,449,o),
(623,505,o),
(627,570,cs),
(630,624,o),
(620,678,o),
(600,716,cs),
(546,816,o),
(427,820,o),
(327,820,cs),
(197,820,o),
(47,786,o),
(31,630,cs),
(27,586,o),
(34,526,o),
(66,493,cs),
(117,440,o),
(223,446,o),
(293,483,cs),
(308,492,o),
(317,508,o),
(316,525,cs),
(314,560,o),
(305,596,o),
(295,629,cs),
(286,663,o),
(251,735,o),
(307,744,c),
(353,740,o),
(362,684,o),
(366,646,cs),
(373,585,o),
(352,522,o),
(314,474,cs),
(276,425,o),
(221,398,o),
(167,372,cs),
(75,329,o),
(41,270,o),
(30,198,cs),
(22,146,o),
(26,87,o),
(26,26,cs),
(26,11,o),
(38,0,o),
(52,0,cs),
(592,0,ls),
(608,0,o),
(620,12,o),
(618,29,cs),
(609,132,o),
(611,259,o),
(623,356,cs),
(624,362,o),
(620,376,o),
(613,372,cs),
(511,318,o),
(447,290,o),
(334,252,cs),
(302,241,o),
(249,221,o),
(203,212,cs),
(182,209,o),
(162,207,o),
(147,210,cs),
(122,215,o),
(117,244,o),
(133,263,cs),
(145,276,o),
(162,281,o),
(179,285,cs)
);
}
);
width = 653;
}
);
unicode = 50;
},
{
glyphname = three;
lastChange = "2024-09-25 03:54:28 +0000";
layers = (
{
layerId = m01;
shapes = (
{
closed = 1;
nodes = (
(589,383,o),
(553,413,o),
(514,435,c),
(551,454,o),
(569,479,o),
(591,510,cs),
(616,548,o),
(624,592,o),
(615,633,cs),
(609,662,o),
(596,690,o),
(578,713,cs),
(557,740,o),
(530,763,o),
(499,780,cs),
(445,809,o),
(384,822,o),
(321,821,cs),
(255,819,o),
(187,801,o),
(130,768,cs),
(79,738,o),
(44,694,o),
(31,630,cs),
(23,591,o),
(34,535,o),
(66,505,cs),
(117,455,o),
(223,460,o),
(291,495,cs),
(307,503,o),
(315,518,o),
(314,534,cs),
(312,566,o),
(303,599,o),
(293,630,cs),
(287,649,o),
(273,680,o),
(274,704,cs),
(275,718,o),
(282,730,o),
(300,734,cs),
(316,737,o),
(331,727,o),
(341,712,cs),
(380,651,o),
(368,570,o),
(330,512,cs),
(313,487,o),
(289,472,o),
(262,458,cs),
(252,453,o),
(246,444,o),
(246,434,cs),
(246,424,o),
(252,412,o),
(264,405,cs),
(293,389,o),
(320,364,o),
(337,334,cs),
(356,300,o),
(365,257,o),
(367,218,cs),
(368,190,o),
(365,163,o),
(357,136,cs),
(351,114,o),
(339,81,o),
(315,71,cs),
(307,68,o),
(298,66,o),
(289,70,cs),
(281,73,o),
(274,80,o),
(270,93,cs),
(261,135,o),
(282,179,o),
(293,218,cs),
(301,246,o),
(309,274,o),
(310,302,cs),
(311,318,o),
(303,333,o),
(287,341,cs),
(242,365,o),
(184,373,o),
(132,364,cs),
(109,360,o),
(83,352,o),
(66,334,cs),
(47,315,o),
(34,289,o),
(29,262,cs),
(5,137,o),
(108,32,o),
(220,-5,cs),
(255,-16,o),
(294,-21,o),
(333,-20,cs),
(397,-19,o),
(463,-3,o),
(513,28,cs),
(575,63,o),
(625,125,o),
(639,201,cs),
(649,249,o),
(640,301,o),
(613,346,cs)
);
}
);
width = 668;
}
);
unicode = 51;
},
{
glyphname = four;
lastChange = "2024-09-25 04:00:21 +0000";
layers = (
{
layerId = m01;
shapes = (
{
closed = 1;
nodes = (
(0,103,o),
(18,90,o),
(40,90,cs),
(403,91,l),
(403,23,ls),
(403,11,o),
(412,0,o),
(423,0,cs),
(647,0,ls),
(659,0,o),
(667,10,o),
(666,22,cs),
(659,82,o),
(659,162,o),
(659,222,cs),
(659,282,o),
(659,427,o),
(666,488,cs),
(667,501,o),
(659,510,o),
(647,510,cs),
(473,510,ls),
(470,510,o),
(467,509,o),
(464,508,cs),
(451,505,o),
(447,498,o),
(442,486,cs),
(407,398,o),
(372,316,o),
(313,241,cs),
(300,225,o),
(272,190,o),
(245,174,cs),
(227,163,o),
(209,160,o),
(194,175,cs),
(177,192,o),
(183,213,o),
(201,229,cs),
(271,292,o),
(334,359,o),
(388,435,cs),
(456,531,o),
(466,662,o),
(471,775,cs),
(472,791,o),
(463,800,o),
(447,800,cs),
(189,800,ls),
(173,800,o),
(165,792,o),
(164,775,cs),
(155,607,o),
(133,445,o),
(104,352,cs),
(72,250,o),
(36,193,o),
(16,171,cs),
(4,158,o),
(0,144,o),
(0,129,cs),
(0,125,ls)
);
}
);
width = 691;
}
);
unicode = 52;
},
{
glyphname = five;
lastChange = "2024-09-25 03:15:05 +0000";
layers = (
{
layerId = m01;
shapes = (
{
closed = 1;
nodes = (
(591,380,o),
(571,422,o),
(541,455,cs),
(522,476,o),
(500,493,o),
(473,505,cs),
(395,541,o),
(306,522,o),
(224,512,cs),
(184,509,o),
(167,524,o),
(167,539,cs),
(167,554,o),
(178,564,o),
(196,571,cs),
(276,602,o),
(498,562,o),
(525,553,cs),
(541,548,o),
(554,565,o),
(552,583,cs),
(548,644,o),
(545,711,o),
(551,771,cs),
(553,788,o),
(542,801,o),
(525,801,cs),
(121,801,ls),
(105,801,o),
(93,788,o),
(94,771,cs),
(104,672,o),
(98,587,o),
(77,487,cs),
(76,480,o),
(77,474,o),
(85,467,cs),
(95,458,o),
(108,456,o),
(120,457,cs),
(180,462,ls),
(216,465,o),
(258,454,o),
(289,427,cs),
(304,414,o),
(311,404,o),
(320,386,cs),
(338,347,o),
(346,297,o),
(348,252,cs),
(349,220,o),
(348,188,o),
(339,158,cs),
(329,125,o),
(318,98,o),
(288,91,cs),
(273,87,o),
(261,94,o),
(256,117,cs),
(247,166,o),
(268,207,o),
(278,252,cs),
(286,285,o),
(293,317,o),
(294,349,cs),
(295,368,o),
(288,385,o),
(272,394,cs),
(230,422,o),
(175,431,o),
(125,421,cs),
(104,416,o),
(79,407,o),
(63,386,cs),
(45,364,o),
(33,334,o),
(28,303,cs),
(5,159,o),
(103,38,o),
(209,-5,cs),
(242,-17,o),
(279,-23,o),
(316,-22,cs),
(377,-21,o),
(439,-2,o),
(487,33,cs),
(579,100,o),
(627,224,o),
(602,336,cs)
);
}
);
width = 634;
}
);
unicode = 53;
},
{
glyphname = six;
lastChange = "2024-09-25 03:47:13 +0000";
layers = (
{
layerId = m01;
shapes = (
{
closed = 1;
nodes = (
(414,98,o),
(386,78,o),
(355,94,cs),
(325,109,o),
(317,148,o),
(316,178,cs),
(315,212,o),
(320,247,o),
(325,281,cs),
(329,308,o),
(339,338,o),
(350,365,cs),
(356,379,o),
(373,435,o),
(397,432,cs),
(417,430,o),
(410,412,o),
(406,402,cs),
(391,360,o),
(383,316,o),
(382,272,cs),
(381,222,o),
(393,175,o),
(405,127,cs)
);
},
{
closed = 1;
nodes = (
(27,269,o),
(63,137,o),
(148,60,cs),
(200,13,o),
(270,-18,o),
(361,-19,cs),
(451,-20,o),
(505,1,o),
(563,40,cs),
(608,71,o),
(645,114,o),
(663,168,cs),
(683,224,o),
(683,289,o),
(663,345,cs),
(645,394,o),
(611,436,o),
(563,460,cs),
(546,469,o),
(528,475,o),
(508,479,cs),
(450,492,o),
(382,485,o),
(338,448,c),
(319,490,o),
(313,538,o),
(313,585,cs),
(313,620,o),
(315,657,o),
(327,691,cs),
(336,716,o),
(352,736,o),
(379,733,cs),
(404,729,o),
(406,708,o),
(401,683,cs),
(390,642,o),
(370,614,o),
(366,572,cs),
(364,558,o),
(365,544,o),
(374,533,cs),
(379,527,o),
(387,523,o),
(394,520,cs),
(434,503,o),
(480,494,o),
(524,499,cs),
(567,504,o),
(605,522,o),
(627,554,cs),
(643,577,o),
(650,608,o),
(645,647,cs),
(627,786,o),
(464,822,o),
(345,815,cs),
(176,805,o),
(65,680,o),
(35,520,cs),
(27,480,o),
(24,436,o),
(25,391,cs)
);
}
);
width = 703;
}
);
unicode = 54;
},
{
glyphname = seven;
lastChange = "2024-09-25 03:46:16 +0000";
layers = (
{
layerId = m01;
shapes = (
{
closed = 1;
nodes = (
(51,800,ls),
(36,800,o),
(25,789,o),
(25,773,cs),
(28,695,o),
(30,613,o),
(27,533,cs),
(27,497,o),
(62,482,o),
(88,508,cs),
(118,538,o),
(146,564,o),
(183,594,cs),
(230,631,o),
(272,662,o),
(316,690,cs),
(333,700,o),
(369,723,o),
(399,731,cs),
(413,735,o),
(433,735,o),
(441,720,cs),
(452,699,o),
(432,680,o),
(415,672,cs),
(288,615,o),
(188,513,o),
(137,385,cs),
(92,273,o),
(71,147,o),
(70,25,cs),
(70,11,o),
(81,0,o),
(95,0,cs),
(354,0,ls),
(368,0,o),
(379,10,o),
(380,25,cs),
(386,277,o),
(411,524,o),
(540,731,cs),
(542,734,o),
(543,739,o),
(543,742,cs),
(543,775,ls),
(543,789,o),
(532,800,o),
(518,800,cs)
);
}
);
width = 493;
}
);
unicode = 55;
},
{
glyphname = eight;
lastChange = "2024-09-25 03:44:40 +0000";
layers = (
{
layerId = m01;
shapes = (
{
closed = 1;
nodes = (
(347,503,o),
(339,502,o),
(333,505,cs),
(327,508,o),
(322,515,o),
(324,524,cs),
(331,547,o),
(332,586,o),
(326,623,cs),
(321,651,o),
(306,675,o),
(301,701,cs),
(296,727,o),
(309,741,o),
(327,743,cs),
(337,744,o),
(348,742,o),
(358,736,cs),
(390,716,o),
(399,670,o),
(394,622,cs),
(389,578,o),
(372,532,o),
(352,509,cs)
);
},
{
closed = 1;
nodes = (
(41,131,o),
(97,72,o),
(165,30,cs),
(223,-6,o),
(288,-21,o),
(350,-20,cs),
(415,-19,o),
(477,-1,o),
(529,30,cs),
(595,71,o),
(650,125,o),
(666,220,cs),
(675,273,o),
(665,329,o),
(638,379,cs),
(611,429,o),
(567,454,o),
(521,477,c),
(547,493,o),
(572,512,o),
(588,535,cs),
(635,604,o),
(615,679,o),
(574,729,cs),
(553,753,o),
(529,775,o),
(497,791,cs),
(455,814,o),
(403,828,o),
(349,828,cs),
(298,829,o),
(244,817,o),
(196,791,cs),
(166,775,o),
(139,754,o),
(118,729,cs),
(83,686,o),
(59,608,o),
(106,535,cs),
(122,513,o),
(147,493,o),
(172,478,c),
(131,457,o),
(82,429,o),
(56,379,cs),
(29,328,o),
(20,273,o),
(28,220,cs)
);
},
{
closed = 1;
nodes = (
(296,123,o),
(287,184,o),
(291,245,cs),
(296,306,o),
(313,368,o),
(334,399,cs),
(338,405,o),
(344,407,o),
(349,406,cs),
(357,404,o),
(364,393,o),
(362,380,cs),
(355,351,o),
(354,287,o),
(360,247,cs),
(365,210,o),
(380,178,o),
(385,143,cs),
(389,118,o),
(383,101,o),
(372,92,cs),
(361,82,o),
(343,83,o),
(328,96,cs)
);
}
);
width = 694;
}
);
unicode = 56;
},
{
glyphname = nine;
lastChange = "2024-09-25 03:30:03 +0000";
layers = (
{
layerId = m01;
shapes = (
{
closed = 1;
nodes = (
(289,730,o),
(317,750,o),
(348,734,cs),
(378,719,o),
(386,680,o),
(387,650,cs),
(388,616,o),
(383,581,o),
(378,547,cs),
(374,520,o),
(364,490,o),
(353,463,cs),
(347,449,o),
(330,393,o),
(306,396,cs),
(286,398,o),
(293,416,o),
(297,426,cs),
(312,468,o),
(320,512,o),
(321,556,cs),
(322,606,o),
(310,653,o),
(298,701,cs)
);
},
{
closed = 1;
nodes = (
(58,401,o),
(92,359,o),
(140,335,cs),
(157,326,o),
(175,320,o),
(195,316,cs),
(253,303,o),
(321,310,o),
(365,347,c),
(380,316,o),
(386,281,o),
(389,246,cs),
(392,207,o),
(390,169,o),
(376,131,cs),
(371,117,o),
(362,100,o),
(347,93,cs),
(333,86,o),
(315,87,o),
(304,100,cs),
(293,114,o),
(297,130,o),
(304,143,cs),
(314,161,o),
(326,177,o),
(332,196,cs),
(337,212,o),
(341,229,o),
(337,246,cs),
(333,264,o),
(317,273,o),
(300,279,cs),
(262,293,o),
(220,301,o),
(179,296,cs),
(136,291,o),
(98,273,o),
(76,241,cs),
(60,218,o),
(53,187,o),
(58,148,cs),
(76,9,o),
(239,-27,o),
(358,-20,cs),
(527,-10,o),
(638,115,o),
(668,275,cs),
(676,315,o),
(679,359,o),
(678,404,cs),
(676,526,o),
(640,658,o),
(555,735,cs),
(503,782,o),
(433,813,o),
(342,814,cs),
(252,815,o),
(198,794,o),
(140,755,cs),
(95,724,o),
(58,681,o),
(40,627,cs),
(20,571,o),
(20,506,o),
(40,450,cs)
);
}
);
width = 703;
}
);
unicode = 57;
},
{
glyphname = period;
lastChange = "2024-09-25 04:14:42 +0000";
layers = (
{
layerId = m01;
shapes = (
{
closed = 1;
nodes = (
(97,214,o),
(25,160,o),
(25,94,cs),
(25,31,o),
(97,-23,o),
(154,-23,cs),
(210,-23,o),
(282,31,o),
(282,94,cs),
(282,160,o),
(210,214,o),
(154,214,cs)
);
}
);
width = 307;
}
);
unicode = 46;
},
{
glyphname = comma;
lastChange = "2024-02-02 02:14:40 +0000";
layers = (
{
layerId = m01;
shapes = (
{
closed = 1;
nodes = (
(196,171,ls),
(221,171,o),
(244,159,o),
(245,139,cs),
(253,66,o),
(186,-57,o),
(104,-101,cs),
(66,-121,o),
(25,-94,o),
(25,-57,cs),
(25,127,ls),
(25,152,o),
(49,171,o),
(79,171,cs)
);
}
);
width = 271;
}
);
unicode = 44;
},
{
glyphname = semicolon;
lastChange = "2024-04-09 22:25:13 +0000";
layers = (
{
layerId = m01;
shapes = (
{
closed = 1;
nodes = (
(215,171,ls),
(239,171,o),
(262,159,o),
(264,139,cs),
(271,66,o),
(205,-77,o),
(122,-121,cs),
(85,-141,o),
(43,-114,o),
(43,-77,cs),
(43,127,ls),
(43,152,o),
(67,171,o),
(97,171,cs)
);
},
{
closed = 1;
nodes = (
(97,630,o),
(25,576,o),
(25,510,cs),
(25,447,o),
(97,393,o),
(154,393,cs),
(210,393,o),
(282,447,o),
(282,510,cs),
(282,576,o),
(210,630,o),
(154,630,cs)
);
}
);
width = 307;
}
);
unicode = 59;
},
{
glyphname = exclam;
lastChange = "2024-04-11 02:54:48 +0000";
layers = (
{
layerId = m01;
shapes = (
{
closed = 1;
nodes = (
(52,257,ls),
(35,257,o),
(27,266,o),
(29,280,cs),
(38,350,o),
(38,441,o),
(38,510,c),
(38,580,o),
(38,701,o),
(28,777,cs),
(27,791,o),
(35,800,o),
(52,800,cs),
(302,800,ls),
(319,800,o),
(327,791,o),
(325,777,cs),
(316,702,o),
(315,590,o),
(315,518,c),
(315,448,o),
(315,351,o),
(324,280,cs),
(326,266,o),
(318,257,o),
(301,257,cs)
);
},
{
closed = 1;
nodes = (
(121,214,o),
(49,160,o),
(49,94,cs),
(49,31,o),
(121,-23,o),
(178,-23,cs),
(234,-23,o),
(306,31,o),
(306,94,cs),
(306,160,o),
(234,214,o),
(178,214,cs)
);
}
);
width = 354;
}
);
unicode = 33;
},
{
glyphname = question;
lastChange = "2024-09-25 04:20:40 +0000";
layers = (
{
layerId = m01;
shapes = (
{
pos = (158,0);
ref = period;
},
{
closed = 1;
nodes = (
(403,264,ls),
(415,264,o),
(424,272,o),
(427,285,cs),
(432,305,o),
(428,314,o),
(429,340,cs),
(432,413,o),
(474,426,o),
(515,488,cs),
(560,554,o),
(578,666,o),
(533,736,cs),
(516,761,o),
(494,779,o),
(467,791,cs),
(415,816,o),
(351,818,o),
(296,818,cs),
(178,818,o),
(61,785,o),
(28,629,cs),
(19,587,o),
(31,525,o),
(60,493,cs),
(106,441,o),
(202,447,o),
(264,483,cs),
(279,492,o),
(286,508,o),
(285,525,cs),
(283,560,o),
(274,595,o),
(266,628,cs),
(257,662,o),
(226,742,o),
(278,742,cs),
(319,742,o),
(327,683,o),
(331,645,cs),
(335,593,o),
(327,544,o),
(301,500,cs),
(283,470,ls),
(262,435,o),
(216,394,o),
(203,355,cs),
(198,339,o),
(194,322,o),
(194,304,cs),
(194,297,o),
(194,290,o),
(195,284,cs),
(195,272,o),
(206,264,o),
(219,264,cs)
);
}
);
width = 584;
}
);
unicode = 63;
},
{
glyphname = hyphen;
lastChange = "2024-04-11 02:43:12 +0000";
layers = (
{
layerId = m01;
shapes = (
{
closed = 1;
nodes = (
(25,493,ls),
(25,508,o),
(30,515,o),
(40,513,cs),
(83,505,o),
(142,505,o),
(186,505,c),
(230,505,o),
(304,505,o),
(352,514,cs),
(362,515,o),
(367,508,o),
(367,493,cs),
(368,272,ls),
(368,257,o),
(363,250,o),
(354,252,cs),
(306,260,o),
(241,260,o),
(194,260,c),
(148,260,o),
(85,260,o),
(40,252,cs),
(30,250,o),
(25,257,o),
(25,272,cs)
);
}
);
width = 393;
}
);
unicode = 45;
},
{
glyphname = parenleft;
lastChange = "2024-03-11 23:29:56 +0000";
layers = (
{
layerId = m01;
shapes = (
{
closed = 1;
nodes = (
(394,850,ls),
(413,850,o),
(425,835,o),
(418,819,cs),
(362,678,o),
(305,529,o),
(305,349,cs),
(305,169,o),
(362,20,o),
(418,-121,cs),
(425,-137,o),
(413,-152,o),
(394,-152,cs),
(268,-152,ls),
(260,-152,o),
(251,-149,o),
(243,-143,cs),
(111,-23,o),
(25,141,o),
(25,349,cs),
(25,557,o),
(111,721,o),
(243,841,cs),
(251,847,o),
(260,850,o),
(268,850,cs)
);
}
);
width = 445;
}
);
unicode = 40;
},
{
glyphname = parenright;
lastChange = "2024-03-11 23:30:02 +0000";
layers = (
{
layerId = m01;
shapes = (
{
closed = 1;
nodes = (
(185,850,o),
(194,847,o),
(202,841,cs),
(334,721,o),
(421,557,o),
(421,349,cs),
(421,141,o),
(334,-23,o),
(202,-143,cs),
(194,-149,o),
(185,-152,o),
(177,-152,cs),
(51,-152,ls),
(32,-152,o),
(21,-137,o),
(27,-121,cs),
(83,20,o),
(140,169,o),
(140,349,cs),
(140,529,o),
(83,678,o),
(27,819,cs),
(21,835,o),
(32,850,o),
(51,850,cs),
(177,850,ls)
);
}
);
width = 445;
}
);
unicode = 41;
},
{
glyphname = at;
lastChange = "2024-04-09 22:56:59 +0000";
layers = (
{
layerId = m01;
shapes = (
{
closed = 1;
nodes = (
(484,143,o),
(481,125,o),
(464,132,cs),
(439,140,o),
(431,172,o),
(428,196,cs),
(424,229,o),
(428,263,o),
(442,293,cs),
(465,345,o),
(511,388,o),
(561,413,cs),
(576,421,o),
(576,414,o),
(572,406,cs),
(565,395,o),
(556,384,o),
(548,373,cs),
(503,310,o),
(459,243,o),
(480,161,cs)
);
},
{
closed = 1;
nodes = (
(259,-135,o),
(66,82,o),
(66,350,cs),
(66,487,o),
(127,628,o),
(186,694,cs),
(264,781,o),
(372,843,o),
(496,843,cs),
(645,843,o),
(729,767,o),
(797,694,cs),
(879,600,o),
(923,485,o),
(923,369,cs),
(923,238,o),
(865,111,o),
(793,111,cs),
(765,111,o),
(746,133,o),
(746,163,cs),
(744,447,ls),
(744,588,o),
(616,656,o),
(482,672,cs),
(388,683,o),
(290,661,o),
(234,605,cs),
(197,568,o),
(173,532,o),
(190,468,cs),
(200,432,o),
(224,408,o),
(265,416,cs),
(302,424,o),
(336,442,o),
(371,458,cs),
(408,474,o),
(447,488,o),
(488,496,cs),
(503,498,o),
(565,514,o),
(571,489,cs),
(577,466,o),
(526,457,o),
(512,454,cs),
(483,447,o),
(453,443,o),
(422,434,cs),
(342,409,o),
(259,370,o),
(203,305,cs),
(161,254,o),
(153,180,o),
(180,121,cs),
(215,48,o),
(298,16,o),
(377,27,cs),
(415,32,o),
(452,59,o),
(477,91,cs),
(492,112,l),
(524,55,o),
(592,25,o),
(667,25,cs),
(745,25,o),
(821,57,o),
(874,124,c),
(802,-30,o),
(660,-135,o),
(496,-135,cs)
);
},
{
closed = 1;
nodes = (
(918,619,o),
(827,721,cs),
(742,816,o),
(624,876,o),
(496,876,cs),
(367,876,o),
(250,816,o),
(163,721,cs),
(72,619,o),
(25,485,o),
(25,350,cs),
(25,60,o),
(237,-176,o),
(496,-176,cs),
(760,-176,o),
(964,67,o),
(964,350,cs),
(964,487,o)
);
}
);
width = 989;
}
);
unicode = 64;
},
{
glyphname = ampersand;
lastChange = "2024-04-11 02:41:59 +0000";
layers = (
{
layerId = m01;
shapes = (
{
closed = 1;
nodes = (
(431,96,o),
(411,95,o),
(394,106,cs),
(360,129,o),
(344,177,o),
(330,214,cs),
(310,262,o),
(295,312,o),
(281,361,cs),
(264,434,o),
(253,508,o),
(252,585,cs),
(252,600,o),
(256,618,o),
(271,613,cs),
(280,611,o),
(281,602,o),
(282,594,cs),
(293,508,o),
(316,426,o),
(350,348,cs),
(375,284,o),
(409,225,o),
(449,169,c),
(467,140,o),
(471,119,o),
(448,107,cs)
);
},
{
closed = 1;
nodes = (
(230,708,o),
(250,724,o),
(266,723,cs),
(290,722,o),
(310,704,o),
(327,690,cs),
(349,672,o),
(369,653,o),
(387,633,cs),
(413,603,o),
(436,571,o),
(454,534,cs),
(462,519,o),
(447,507,o),
(438,521,cs),
(411,558,o),
(381,592,o),
(345,620,cs),
(316,643,o),
(283,661,o),
(248,677,cs),
(239,681,o),
(230,686,o),
(230,696,cs)
);
},
{
closed = 1;
nodes = (
(727,-1,l),
(746,-1,o),
(754,12,o),
(746,29,cs),
(671,181,ls),
(670,184,o),
(670,188,o),
(674,189,cs),
(752,215,o),
(839,360,o),
(867,451,cs),
(872,468,o),
(862,479,o),
(845,479,cs),
(630,479,ls),
(614,479,o),
(605,470,o),
(605,453,cs),
(605,390,o),
(604,332,o),
(603,336,c),
(545,480,l),
(584,520,ls),
(612,548,o),
(620,583,o),
(620,619,cs),
(620,734,o),
(529,820,o),
(336,820,cs),
(196,820,o),
(51,739,o),
(51,619,cs),
(51,561,o),
(86,505,o),
(140,467,c),
(60,418,o),
(10,342,o),
(10,256,cs),
(11,75,o),
(151,-20,o),
(295,-19,cs),
(348,-19,o),
(410,3,o),
(447,37,c),
(455,19,ls),
(461,7,o),
(471,0,o),
(485,0,cs)
);
}
);
width = 897;
}
);
unicode = 38;
},
{
glyphname = dollar;
lastChange = "2024-09-25 03:36:08 +0000";
layers = (
{
layerId = m01;
shapes = (
{
closed = 1;
nodes = (
(299,800,ls),
(285,800,o),
(274,789,o),
(274,775,cs),
(274,25,ls),
(274,11,o),
(285,0,o),
(299,0,cs),
(300,0,ls),
(314,0,o),
(325,11,o),
(325,25,cs),
(325,775,ls),
(325,789,o),
(314,800,o),
(300,800,cs)
);
},
{
closed = 1;
nodes = (
(564,378,o),
(551,404,o),
(536,425,cs),
(463,528,o),
(323,560,o),
(210,599,c),
(190,608,o),
(181,621,o),
(186,632,cs),
(189,639,o),
(198,644,o),
(216,644,cs),
(266,645,o),
(316,629,o),
(361,605,c),
(401,579,o),
(437,549,o),
(469,512,cs),
(479,500,o),
(492,481,o),
(510,484,cs),
(564,494,o),
(592,612,o),
(521,677,cs),
(475,718,o),
(418,735,o),
(357,740,cs),
(324,743,o),
(293,742,o),
(262,739,cs),
(138,731,o),
(38,682,o),
(26,550,cs),
(22,503,o),
(31,454,o),
(56,413,cs),
(65,399,o),
(75,386,o),
(87,374,cs),
(147,314,o),
(225,278,o),
(307,257,cs),
(322,253,o),
(338,249,o),
(354,242,cs),
(365,238,o),
(385,229,o),
(388,215,cs),
(391,200,o),
(377,192,o),
(364,190,c),
(325,188,o),
(286,198,o),
(251,215,cs),
(216,234,o),
(183,258,o),
(154,286,cs),
(141,298,o),
(127,314,o),
(115,329,cs),
(104,341,o),
(88,354,o),
(70,346,cs),
(43,333,o),
(30,303,o),
(27,271,cs),
(23,230,o),
(34,189,o),
(64,162,c),
(127,97,o),
(255,69,o),
(355,80,cs),
(418,87,o),
(490,119,o),
(531,170,cs),
(570,219,o),
(578,289,o),
(569,349,cs)
);
}
);
width = 597;
}
);
unicode = 36;
},
{
glyphname = euro;
lastChange = "2024-09-25 04:10:15 +0000";
layers = (
{
layerId = m01;
shapes = (
{
closed = 1;
nodes = (
(777,370,o),
(771,397,o),
(754,406,cs),
(726,422,o),
(692,395,o),
(668,383,cs),
(611,354,o),
(535,377,o),
(499,429,cs),
(459,486,o),
(466,567,o),
(476,632,cs),
(480,654,o),
(492,680,o),
(517,685,cs),
(536,688,o),
(556,677,o),
(547,655,cs),
(527,612,o),
(516,564,o),
(513,517,cs),
(510,476,o),
(535,445,o),
(573,434,cs),
(661,407,o),
(773,433,o),
(773,542,cs),
(772,589,o),
(754,626,o),
(719,657,cs),
(675,698,o),
(620,725,o),
(560,730,cs),
(471,739,o),
(383,718,o),
(316,669,cs),
(264,632,o),
(225,576,o),
(210,504,cs),
(186,391,o),
(202,249,o),
(285,163,cs),
(357,91,o),
(464,70,o),
(563,81,cs),
(631,90,o),
(693,126,o),
(732,181,cs),
(754,214,o),
(770,251,o),
(776,291,cs),
(778,303,o),
(779,323,o),
(778,343,cs)
);
},
{
closed = 1;
nodes = (
(20,449,ls),
(20,435,o),
(31,424,o),
(45,424,cs),
(268,424,l),
(268,479,l),
(45,479,ls),
(31,479,o),
(20,467,o),
(20,453,cs)
);
},
{
closed = 1;
nodes = (
(20,358,ls),
(20,344,o),
(31,333,o),
(45,333,cs),
(268,333,l),
(268,388,l),
(45,388,ls),
(31,388,o),
(20,376,o),
(20,362,cs)
);
}
